<?xml version="1.0" encoding="UTF-8" standalone="no"?>
<svg
   xmlns:dc="http://purl.org/dc/elements/1.1/"
   xmlns:cc="http://creativecommons.org/ns#"
   xmlns:rdf="http://www.w3.org/1999/02/22-rdf-syntax-ns#"
   xmlns:svg="http://www.w3.org/2000/svg"
   xmlns="http://www.w3.org/2000/svg"
   viewBox="0 0 597.33331 386.66666"
   height="386.66666"
   width="597.33331"
   xml:space="preserve"
   id="svg2"
   version="1.1"><metadata
     id="metadata8"><rdf:RDF><cc:Work
         rdf:about=""><dc:format>image/svg+xml</dc:format><dc:type
           rdf:resource="http://purl.org/dc/dcmitype/StillImage" /></cc:Work></rdf:RDF></metadata><defs
     id="defs6"><clipPath
       id="clipPath36"
       clipPathUnits="userSpaceOnUse"><path
         id="path34"
         d="M 0,0 H 448.5 V 290.25 H 0 Z" /></clipPath><clipPath
       id="clipPath52"
       clipPathUnits="userSpaceOnUse"><path
         id="path50"
         d="M 40.49,35.76 H 442.52 V 241.48 H 40.49 Z" /></clipPath></defs><g
     transform="matrix(1.3333333,0,0,-1.3333333,0,386.66667)"
     id="g10"><g
       id="g12" /><g
       id="g14" /><g
       id="g16" /><g
       id="g18" /><g
       id="g20" /><g
       id="g22" /><g
       id="g24" /><g
       id="g26" /><g
       id="g28" /><g
       id="g30"><g
         clip-path="url(#clipPath36)"
         id="g32"><path
           id="path38"
           style="fill:#ffffff;fill-opacity:1;fill-rule:nonzero;stroke:#ffffff;stroke-width:1.07000005;stroke-linecap:round;stroke-linejoin:round;stroke-miterlimit:10;stroke-dasharray:none;stroke-opacity:1"
           d="M 0,0 H 448.5 V 290.25 H 0 Z" /></g></g><g
       id="g40" /><g
       id="g42" /><g
       id="g44" /><g
       id="g46"><g
         clip-path="url(#clipPath52)"
         id="g48"><path
           id="path54"
           style="fill:#ffffff;fill-opacity:1;fill-rule:nonzero;stroke:none"
           d="M 40.49,35.76 H 442.52 V 241.48 H 40.49 Z" /><path
           id="path56"
           style="fill:#fc4e07;fill-opacity:1;fill-rule:nonzero;stroke:#fc4e07;stroke-width:0.70999998;stroke-linecap:round;stroke-linejoin:round;stroke-miterlimit:10;stroke-dasharray:none;stroke-opacity:1"
           d="m 360.92,94.56 c 0,1.07 0.88,1.95 1.95,1.95 1.08,0 1.96,-0.88 1.96,-1.95 0,-1.08 -0.88,-1.96 -1.96,-1.96 -1.07,0 -1.95,0.88 -1.95,1.96" /><path
           id="path58"
           style="fill:#fc4e07;fill-opacity:1;fill-rule:nonzero;stroke:#fc4e07;stroke-width:0.70999998;stroke-linecap:round;stroke-linejoin:round;stroke-miterlimit:10;stroke-dasharray:none;stroke-opacity:1"
           d="m 370.98,45.11 c 0,1.08 0.88,1.96 1.96,1.96 1.07,0 1.95,-0.88 1.95,-1.96 0,-1.07 -0.88,-1.95 -1.95,-1.95 -1.08,0 -1.96,0.88 -1.96,1.95" /><path
           id="path60"
           style="fill:#fc4e07;fill-opacity:1;fill-rule:nonzero;stroke:#fc4e07;stroke-width:0.70999998;stroke-linecap:round;stroke-linejoin:round;stroke-miterlimit:10;stroke-dasharray:none;stroke-opacity:1"
           d="m 363.36,63.15 c 0,1.07 0.88,1.95 1.95,1.95 1.08,0 1.96,-0.88 1.96,-1.95 0,-1.08 -0.88,-1.96 -1.96,-1.96 -1.07,0 -1.95,0.88 -1.95,1.96" /><path
           id="path62"
           style="fill:#fc4e07;fill-opacity:1;fill-rule:nonzero;stroke:#fc4e07;stroke-width:0.70999998;stroke-linecap:round;stroke-linejoin:round;stroke-miterlimit:10;stroke-dasharray:none;stroke-opacity:1"
           d="m 372.89,70.79 c 0,1.08 0.88,1.96 1.95,1.96 1.08,0 1.96,-0.88 1.96,-1.96 0,-1.07 -0.88,-1.95 -1.96,-1.95 -1.07,0 -1.95,0.88 -1.95,1.95" /><path
           id="path64"
           style="fill:#fc4e07;fill-opacity:1;fill-rule:nonzero;stroke:#fc4e07;stroke-width:0.70999998;stroke-linecap:round;stroke-linejoin:round;stroke-miterlimit:10;stroke-dasharray:none;stroke-opacity:1"
           d="m 374.04,74.02 c 0,1.08 0.88,1.96 1.96,1.96 1.07,0 1.95,-0.88 1.95,-1.96 0,-1.07 -0.88,-1.95 -1.95,-1.95 -1.08,0 -1.96,0.88 -1.96,1.95" /><path
           id="path66"
           style="fill:#fc4e07;fill-opacity:1;fill-rule:nonzero;stroke:#fc4e07;stroke-width:0.70999998;stroke-linecap:round;stroke-linejoin:round;stroke-miterlimit:10;stroke-dasharray:none;stroke-opacity:1"
           d="m 356.05,84.94 c 0,1.07 0.88,1.95 1.96,1.95 1.07,0 1.95,-0.88 1.95,-1.95 0,-1.08 -0.88,-1.96 -1.95,-1.96 -1.08,0 -1.96,0.88 -1.96,1.96" /><path
           id="path68"
           style="fill:#fc4e07;fill-opacity:1;fill-rule:nonzero;stroke:#fc4e07;stroke-width:0.70999998;stroke-linecap:round;stroke-linejoin:round;stroke-miterlimit:10;stroke-dasharray:none;stroke-opacity:1"
           d="m 365.75,84.75 c 0,1.07 0.88,1.95 1.96,1.95 1.07,0 1.95,-0.88 1.95,-1.95 0,-1.08 -0.88,-1.96 -1.95,-1.96 -1.08,0 -1.96,0.88 -1.96,1.96" /><path
           id="path70"
           style="fill:#fc4e07;fill-opacity:1;fill-rule:nonzero;stroke:#fc4e07;stroke-width:0.70999998;stroke-linecap:round;stroke-linejoin:round;stroke-miterlimit:10;stroke-dasharray:none;stroke-opacity:1"
           d="m 373.08,95.66 c 0,1.08 0.87,1.96 1.95,1.96 1.08,0 1.95,-0.88 1.95,-1.96 0,-1.07 -0.87,-1.95 -1.95,-1.95 -1.08,0 -1.95,0.88 -1.95,1.95" /><path
           id="path72"
           style="fill:#fc4e07;fill-opacity:1;fill-rule:nonzero;stroke:#fc4e07;stroke-width:0.70999998;stroke-linecap:round;stroke-linejoin:round;stroke-miterlimit:10;stroke-dasharray:none;stroke-opacity:1"
           d="m 366.22,98.93 c 0,1.07 0.88,1.95 1.96,1.95 1.07,0 1.95,-0.88 1.95,-1.95 0,-1.08 -0.88,-1.96 -1.95,-1.96 -1.08,0 -1.96,0.88 -1.96,1.96" /><path
           id="path74"
           style="fill:#fc4e07;fill-opacity:1;fill-rule:nonzero;stroke:#fc4e07;stroke-width:0.70999998;stroke-linecap:round;stroke-linejoin:round;stroke-miterlimit:10;stroke-dasharray:none;stroke-opacity:1"
           d="m 364.31,79.22 c 0,1.08 0.88,1.96 1.96,1.96 1.07,0 1.95,-0.88 1.95,-1.96 0,-1.07 -0.88,-1.95 -1.95,-1.95 -1.08,0 -1.96,0.88 -1.96,1.95" /><path
           id="path76"
           style="fill:#e7b800;fill-opacity:1;fill-rule:nonzero;stroke:#e7b800;stroke-width:0.70999998;stroke-linecap:round;stroke-linejoin:round;stroke-miterlimit:10;stroke-dasharray:none;stroke-opacity:1"
           d="m 248.73,135.89 c 0,1.08 0.88,1.96 1.96,1.96 1.07,0 1.95,-0.88 1.95,-1.96 0,-1.07 -0.88,-1.95 -1.95,-1.95 -1.08,0 -1.96,0.88 -1.96,1.95" /><path
           id="path78"
           style="fill:#e7b800;fill-opacity:1;fill-rule:nonzero;stroke:#e7b800;stroke-width:0.70999998;stroke-linecap:round;stroke-linejoin:round;stroke-miterlimit:10;stroke-dasharray:none;stroke-opacity:1"
           d="m 238.61,130.03 c 0,1.08 0.88,1.96 1.96,1.96 1.07,0 1.95,-0.88 1.95,-1.96 0,-1.07 -0.88,-1.95 -1.95,-1.95 -1.08,0 -1.96,0.88 -1.96,1.95" /><path
           id="path80"
           style="fill:#e7b800;fill-opacity:1;fill-rule:nonzero;stroke:#e7b800;stroke-width:0.70999998;stroke-linecap:round;stroke-linejoin:round;stroke-miterlimit:10;stroke-dasharray:none;stroke-opacity:1"
           d="m 243.12,146.44 c 0,1.07 0.88,1.95 1.96,1.95 1.07,0 1.95,-0.88 1.95,-1.95 0,-1.08 -0.88,-1.96 -1.95,-1.96 -1.08,0 -1.96,0.88 -1.96,1.96" /><path
           id="path82"
           style="fill:#e7b800;fill-opacity:1;fill-rule:nonzero;stroke:#e7b800;stroke-width:0.70999998;stroke-linecap:round;stroke-linejoin:round;stroke-miterlimit:10;stroke-dasharray:none;stroke-opacity:1"
           d="m 241.01,157.41 c 0,1.08 0.88,1.96 1.96,1.96 1.07,0 1.95,-0.88 1.95,-1.96 0,-1.07 -0.88,-1.95 -1.95,-1.95 -1.08,0 -1.96,0.88 -1.96,1.95" /><path
           id="path84"
           style="fill:#e7b800;fill-opacity:1;fill-rule:nonzero;stroke:#e7b800;stroke-width:0.70999998;stroke-linecap:round;stroke-linejoin:round;stroke-miterlimit:10;stroke-dasharray:none;stroke-opacity:1"
           d="m 231.57,149.28 c 0,1.08 0.88,1.96 1.95,1.96 1.08,0 1.96,-0.88 1.96,-1.96 0,-1.07 -0.88,-1.95 -1.96,-1.95 -1.07,0 -1.95,0.88 -1.95,1.95" /><path
           id="path86"
           style="fill:#00afbb;fill-opacity:1;fill-rule:nonzero;stroke:#00afbb;stroke-width:0.70999998;stroke-linecap:round;stroke-linejoin:round;stroke-miterlimit:10;stroke-dasharray:none;stroke-opacity:1"
           d="m 121.95,200.47 c 0,1.07 0.88,1.95 1.96,1.95 1.07,0 1.95,-0.88 1.95,-1.95 0,-1.08 -0.88,-1.96 -1.95,-1.96 -1.08,0 -1.96,0.88 -1.96,1.96" /><path
           id="path88"
           style="fill:#00afbb;fill-opacity:1;fill-rule:nonzero;stroke:#00afbb;stroke-width:0.70999998;stroke-linecap:round;stroke-linejoin:round;stroke-miterlimit:10;stroke-dasharray:none;stroke-opacity:1"
           d="m 108.81,210.2 c 0,1.08 0.88,1.96 1.96,1.96 1.07,0 1.95,-0.88 1.95,-1.96 0,-1.07 -0.88,-1.95 -1.95,-1.95 -1.08,0 -1.96,0.88 -1.96,1.95" /><path
           id="path90"
           style="fill:#00afbb;fill-opacity:1;fill-rule:nonzero;stroke:#00afbb;stroke-width:0.70999998;stroke-linecap:round;stroke-linejoin:round;stroke-miterlimit:10;stroke-dasharray:none;stroke-opacity:1"
           d="m 104.71,225.5 c 0,1.07 0.88,1.95 1.96,1.95 1.07,0 1.95,-0.88 1.95,-1.95 0,-1.08 -0.88,-1.96 -1.95,-1.96 -1.08,0 -1.96,0.88 -1.96,1.96" /><path
           id="path92"
           style="fill:#00afbb;fill-opacity:1;fill-rule:nonzero;stroke:#00afbb;stroke-width:0.70999998;stroke-linecap:round;stroke-linejoin:round;stroke-miterlimit:10;stroke-dasharray:none;stroke-opacity:1"
           d="m 110.46,232.13 c 0,1.07 0.88,1.95 1.95,1.95 1.08,0 1.96,-0.88 1.96,-1.95 0,-1.08 -0.88,-1.96 -1.96,-1.96 -1.07,0 -1.95,0.88 -1.95,1.96" /><path
           id="path94"
           style="fill:#00afbb;fill-opacity:1;fill-rule:nonzero;stroke:#00afbb;stroke-width:0.70999998;stroke-linecap:round;stroke-linejoin:round;stroke-miterlimit:10;stroke-dasharray:none;stroke-opacity:1"
           d="m 123.05,209.59 c 0,1.08 0.88,1.96 1.96,1.96 1.07,0 1.95,-0.88 1.95,-1.96 0,-1.07 -0.88,-1.95 -1.95,-1.95 -1.08,0 -1.96,0.88 -1.96,1.95" /><path
           id="path96"
           style="fill:none;stroke:#00afbb;stroke-width:1.07000005;stroke-linecap:butt;stroke-linejoin:round;stroke-miterlimit:10;stroke-dasharray:none;stroke-opacity:1"
           d="m 115.87,202.68 v 26.03" /><path
           id="path98"
           style="fill:none;stroke:#e7b800;stroke-width:1.07000005;stroke-linecap:butt;stroke-linejoin:round;stroke-miterlimit:10;stroke-dasharray:none;stroke-opacity:1"
           d="M 241.51,132.52 V 154.7" /><path
           id="path100"
           style="fill:none;stroke:#fc4e07;stroke-width:1.07000005;stroke-linecap:butt;stroke-linejoin:round;stroke-miterlimit:10;stroke-dasharray:none;stroke-opacity:1"
           d="M 367.14,62.32 V 95.64" /><path
           id="path102"
           style="fill:#00afbb;fill-opacity:1;fill-rule:nonzero;stroke:#00afbb;stroke-width:1.41999996;stroke-linecap:round;stroke-linejoin:round;stroke-miterlimit:10;stroke-dasharray:none;stroke-opacity:1"
           d="m 113.03,215.69 c 0,1.57 1.28,2.85 2.84,2.85 1.56,0 2.84,-1.28 2.84,-2.85 0,-1.56 -1.28,-2.84 -2.84,-2.84 -1.56,0 -2.84,1.28 -2.84,2.84" /><path
           id="path104"
           style="fill:#e7b800;fill-opacity:1;fill-rule:nonzero;stroke:#e7b800;stroke-width:1.41999996;stroke-linecap:round;stroke-linejoin:round;stroke-miterlimit:10;stroke-dasharray:none;stroke-opacity:1"
           d="m 238.66,143.61 c 0,1.56 1.28,2.84 2.85,2.84 1.56,0 2.84,-1.28 2.84,-2.84 0,-1.56 -1.28,-2.84 -2.84,-2.84 -1.57,0 -2.85,1.28 -2.85,2.84" /><path
           id="path106"
           style="fill:#fc4e07;fill-opacity:1;fill-rule:nonzero;stroke:#fc4e07;stroke-width:1.41999996;stroke-linecap:round;stroke-linejoin:round;stroke-miterlimit:10;stroke-dasharray:none;stroke-opacity:1"
           d="m 364.3,78.98 c 0,1.56 1.28,2.84 2.84,2.84 1.57,0 2.84,-1.28 2.84,-2.84 0,-1.56 -1.27,-2.84 -2.84,-2.84 -1.56,0 -2.84,1.28 -2.84,2.84" /></g></g><g
       id="g108" /><g
       id="g110" /><g
       id="g112" /><g
       id="g114" /><g
       id="g116" /><g
       id="g118"><text
         id="text122"
         style="font-variant:normal;font-weight:normal;font-size:12px;font-family:Helvetica;-inkscape-font-specification:Helvetica;writing-mode:lr-tb;fill:#000000;fill-opacity:1;fill-rule:nonzero;stroke:none"
         transform="matrix(1,0,0,-1,21.77,44.2)"><tspan
           id="tspan120"
           y="0"
           x="0 6.6719999">70</tspan></text>
<text
         id="text126"
         style="font-variant:normal;font-weight:normal;font-size:12px;font-family:Helvetica;-inkscape-font-specification:Helvetica;writing-mode:lr-tb;fill:#000000;fill-opacity:1;fill-rule:nonzero;stroke:none"
         transform="matrix(1,0,0,-1,21.77,116.58)"><tspan
           id="tspan124"
           y="0"
           x="0 6.6719999">80</tspan></text>
<text
         id="text130"
         style="font-variant:normal;font-weight:normal;font-size:12px;font-family:Helvetica;-inkscape-font-specification:Helvetica;writing-mode:lr-tb;fill:#000000;fill-opacity:1;fill-rule:nonzero;stroke:none"
         transform="matrix(1,0,0,-1,21.77,188.95)"><tspan
           id="tspan128"
           y="0"
           x="0 6.6719999">90</tspan></text>
</g><g
       id="g132" /><g
       id="g134"><path
         id="path136"
         style="fill:none;stroke:#000000;stroke-width:1.07000005;stroke-linecap:butt;stroke-linejoin:round;stroke-miterlimit:10;stroke-dasharray:none;stroke-opacity:1"
         d="m 37.5,48.51 h 2.99" /><path
         id="path138"
         style="fill:none;stroke:#000000;stroke-width:1.07000005;stroke-linecap:butt;stroke-linejoin:round;stroke-miterlimit:10;stroke-dasharray:none;stroke-opacity:1"
         d="m 37.5,120.88 h 2.99" /><path
         id="path140"
         style="fill:none;stroke:#000000;stroke-width:1.07000005;stroke-linecap:butt;stroke-linejoin:round;stroke-miterlimit:10;stroke-dasharray:none;stroke-opacity:1"
         d="m 37.5,193.26 h 2.99" /></g><g
       id="g142" /><g
       id="g144" /><g
       id="g146" /><g
       id="g148" /><g
       id="g150" /><g
       id="g152" /><g
       id="g154" /><g
       id="g156"><path
         id="path158"
         style="fill:none;stroke:#000000;stroke-width:1.07000005;stroke-linecap:butt;stroke-linejoin:round;stroke-miterlimit:10;stroke-dasharray:none;stroke-opacity:1"
         d="m 115.87,32.77 v 2.99" /><path
         id="path160"
         style="fill:none;stroke:#000000;stroke-width:1.07000005;stroke-linecap:butt;stroke-linejoin:round;stroke-miterlimit:10;stroke-dasharray:none;stroke-opacity:1"
         d="m 241.51,32.77 v 2.99" /><path
         id="path162"
         style="fill:none;stroke:#000000;stroke-width:1.07000005;stroke-linecap:butt;stroke-linejoin:round;stroke-miterlimit:10;stroke-dasharray:none;stroke-opacity:1"
         d="m 367.14,32.77 v 2.99" /></g><g
       id="g164" /><g
       id="g166"><text
         id="text170"
         style="font-variant:normal;font-weight:normal;font-size:12px;font-family:Helvetica;-inkscape-font-specification:Helvetica;writing-mode:lr-tb;fill:#000000;fill-opacity:1;fill-rule:nonzero;stroke:none"
         transform="matrix(1,0,0,-1,103.54,21.77)"><tspan
           id="tspan168"
           y="0"
           x="0 6.6719999 9.3360004 12 18.672001">alluv</tspan></text>
<text
         id="text174"
         style="font-variant:normal;font-weight:normal;font-size:12px;font-family:Helvetica;-inkscape-font-specification:Helvetica;writing-mode:lr-tb;fill:#000000;fill-opacity:1;fill-rule:nonzero;stroke:none"
         transform="matrix(1,0,0,-1,230.51,21.77)"><tspan
           id="tspan172"
           y="0"
           x="0 2.664 5.3280001 15.324">lime</tspan></text>
<text
         id="text178"
         style="font-variant:normal;font-weight:normal;font-size:12px;font-family:Helvetica;-inkscape-font-specification:Helvetica;writing-mode:lr-tb;fill:#000000;fill-opacity:1;fill-rule:nonzero;stroke:none"
         transform="matrix(1,0,0,-1,356.62,21.77)"><tspan
           id="tspan176"
           y="0"
           x="0 5.6999998 12.372 15.036">volc</tspan></text>
</g><g
       id="g180" /><g
       id="g182" /><g
       id="g184" /><g
       id="g186"><text
         id="text190"
         style="font-variant:normal;font-weight:normal;font-size:12px;font-family:Helvetica;-inkscape-font-specification:Helvetica;writing-mode:lr-tb;fill:#000000;fill-opacity:1;fill-rule:nonzero;stroke:none"
         transform="matrix(1,0,0,-1,231.83,8.37)"><tspan
           id="tspan188"
           y="0"
           x="0 6.6719999 9.3360004 12.672">Lith</tspan></text>
</g><g
       id="g192" /><g
       id="g194"><text
         id="text198"
         style="font-variant:normal;font-weight:normal;font-size:12px;font-family:Helvetica;-inkscape-font-specification:Helvetica;writing-mode:lr-tb;fill:#000000;fill-opacity:1;fill-rule:nonzero;stroke:none"
         transform="matrix(0,1,1,0,16.98,106.95)"><tspan
           id="tspan196"
           y="0"
           x="0 8.6639996 17.327999 26.664 33.335999 40.007999 46.68 53.352001">HCO3_ppm</tspan></text>
</g><g
       id="g200" /><g
       id="g202" /><g
       id="g204" /><g
       id="g206"><path
         id="path208"
         style="fill:#ffffff;fill-opacity:1;fill-rule:nonzero;stroke:none"
         d="m 166.89,249.98 h 149.23 v 25.78 H 166.89 Z" /></g><g
       id="g210" /><g
       id="g212"><text
         id="text216"
         style="font-variant:normal;font-weight:normal;font-size:12px;font-family:Helvetica;-inkscape-font-specification:Helvetica;writing-mode:lr-tb;fill:#000000;fill-opacity:1;fill-rule:nonzero;stroke:none"
         transform="matrix(1,0,0,-1,171.14,258.57)"><tspan
           id="tspan214"
           y="0"
           x="0 6.6719999 9.3360004 12.672">Lith</tspan></text>
</g><g
       id="g218" /><g
       id="g220" /><g
       id="g222" /><g
       id="g224"><path
         id="path226"
         style="fill:#00afbb;fill-opacity:1;fill-rule:nonzero;stroke:#00afbb;stroke-width:0.70999998;stroke-linecap:round;stroke-linejoin:round;stroke-miterlimit:10;stroke-dasharray:none;stroke-opacity:1"
         d="m 201.5,262.88 c 0,1.07 0.88,1.95 1.95,1.95 1.08,0 1.96,-0.88 1.96,-1.95 0,-1.08 -0.88,-1.96 -1.96,-1.96 -1.07,0 -1.95,0.88 -1.95,1.96" /></g><g
       id="g228" /><g
       id="g230"><path
         id="path232"
         style="fill:none;stroke:#00afbb;stroke-width:1.07000005;stroke-linecap:butt;stroke-linejoin:round;stroke-miterlimit:10;stroke-dasharray:none;stroke-opacity:1"
         d="m 203.45,255.96 v 13.83" /><path
         id="path234"
         style="fill:#00afbb;fill-opacity:1;fill-rule:nonzero;stroke:#00afbb;stroke-width:1.41999996;stroke-linecap:round;stroke-linejoin:round;stroke-miterlimit:10;stroke-dasharray:none;stroke-opacity:1"
         d="m 200.61,262.88 c 0,1.56 1.28,2.84 2.84,2.84 1.57,0 2.84,-1.28 2.84,-2.84 0,-1.57 -1.27,-2.85 -2.84,-2.85 -1.56,0 -2.84,1.28 -2.84,2.85" /></g><g
       id="g236" /><g
       id="g238" /><g
       id="g240" /><g
       id="g242"><path
         id="path244"
         style="fill:#e7b800;fill-opacity:1;fill-rule:nonzero;stroke:#e7b800;stroke-width:0.70999998;stroke-linecap:round;stroke-linejoin:round;stroke-miterlimit:10;stroke-dasharray:none;stroke-opacity:1"
         d="m 242.84,262.88 c 0,1.07 0.88,1.95 1.96,1.95 1.07,0 1.95,-0.88 1.95,-1.95 0,-1.08 -0.88,-1.96 -1.95,-1.96 -1.08,0 -1.96,0.88 -1.96,1.96" /></g><g
       id="g246" /><g
       id="g248"><path
         id="path250"
         style="fill:none;stroke:#e7b800;stroke-width:1.07000005;stroke-linecap:butt;stroke-linejoin:round;stroke-miterlimit:10;stroke-dasharray:none;stroke-opacity:1"
         d="m 244.8,255.96 v 13.83" /><path
         id="path252"
         style="fill:#e7b800;fill-opacity:1;fill-rule:nonzero;stroke:#e7b800;stroke-width:1.41999996;stroke-linecap:round;stroke-linejoin:round;stroke-miterlimit:10;stroke-dasharray:none;stroke-opacity:1"
         d="m 241.95,262.88 c 0,1.56 1.28,2.84 2.85,2.84 1.56,0 2.84,-1.28 2.84,-2.84 0,-1.57 -1.28,-2.85 -2.84,-2.85 -1.57,0 -2.85,1.28 -2.85,2.85" /></g><g
       id="g254" /><g
       id="g256" /><g
       id="g258" /><g
       id="g260"><path
         id="path262"
         style="fill:#fc4e07;fill-opacity:1;fill-rule:nonzero;stroke:#fc4e07;stroke-width:0.70999998;stroke-linecap:round;stroke-linejoin:round;stroke-miterlimit:10;stroke-dasharray:none;stroke-opacity:1"
         d="m 282.04,262.88 c 0,1.07 0.88,1.95 1.96,1.95 1.07,0 1.95,-0.88 1.95,-1.95 0,-1.08 -0.88,-1.96 -1.95,-1.96 -1.08,0 -1.96,0.88 -1.96,1.96" /></g><g
       id="g264" /><g
       id="g266"><path
         id="path268"
         style="fill:none;stroke:#fc4e07;stroke-width:1.07000005;stroke-linecap:butt;stroke-linejoin:round;stroke-miterlimit:10;stroke-dasharray:none;stroke-opacity:1"
         d="m 284,255.96 v 13.83" /><path
         id="path270"
         style="fill:#fc4e07;fill-opacity:1;fill-rule:nonzero;stroke:#fc4e07;stroke-width:1.41999996;stroke-linecap:round;stroke-linejoin:round;stroke-miterlimit:10;stroke-dasharray:none;stroke-opacity:1"
         d="m 281.15,262.88 c 0,1.56 1.28,2.84 2.85,2.84 1.56,0 2.84,-1.28 2.84,-2.84 0,-1.57 -1.28,-2.85 -2.84,-2.85 -1.57,0 -2.85,1.28 -2.85,2.85" /></g><g
       id="g272" /><g
       id="g274"><text
         id="text278"
         style="font-variant:normal;font-weight:normal;font-size:10px;font-family:Helvetica;-inkscape-font-specification:Helvetica;writing-mode:lr-tb;fill:#000000;fill-opacity:1;fill-rule:nonzero;stroke:none"
         transform="matrix(1,0,0,-1,214.25,259.29)"><tspan
           id="tspan276"
           y="0"
           x="0 5.5599999 7.7800002 10 15.56">alluv</tspan></text>
</g><g
       id="g280" /><g
       id="g282"><text
         id="text286"
         style="font-variant:normal;font-weight:normal;font-size:10px;font-family:Helvetica;-inkscape-font-specification:Helvetica;writing-mode:lr-tb;fill:#000000;fill-opacity:1;fill-rule:nonzero;stroke:none"
         transform="matrix(1,0,0,-1,255.6,259.29)"><tspan
           id="tspan284"
           y="0"
           x="0 2.22 4.4400001 12.77">lime</tspan></text>
</g><g
       id="g288" /><g
       id="g290"><text
         id="text294"
         style="font-variant:normal;font-weight:normal;font-size:10px;font-family:Helvetica;-inkscape-font-specification:Helvetica;writing-mode:lr-tb;fill:#000000;fill-opacity:1;fill-rule:nonzero;stroke:none"
         transform="matrix(1,0,0,-1,294.8,259.29)"><tspan
           id="tspan292"
           y="0"
           x="0 4.75 10.31 12.53">volc</tspan></text>
</g><g
       id="g296" /><g
       id="g298" /><g
       id="g300" /><g
       id="g302" /><g
       id="g304" /><g
       id="g306" /></g></svg>