<?xml version="1.0" encoding="UTF-8" standalone="no"?>
<svg
   xmlns:dc="http://purl.org/dc/elements/1.1/"
   xmlns:cc="http://creativecommons.org/ns#"
   xmlns:rdf="http://www.w3.org/1999/02/22-rdf-syntax-ns#"
   xmlns:svg="http://www.w3.org/2000/svg"
   xmlns="http://www.w3.org/2000/svg"
   viewBox="0 0 597.33331 386.66666"
   height="386.66666"
   width="597.33331"
   xml:space="preserve"
   id="svg2"
   version="1.1"><metadata
     id="metadata8"><rdf:RDF><cc:Work
         rdf:about=""><dc:format>image/svg+xml</dc:format><dc:type
           rdf:resource="http://purl.org/dc/dcmitype/StillImage" /></cc:Work></rdf:RDF></metadata><defs
     id="defs6"><clipPath
       id="clipPath36"
       clipPathUnits="userSpaceOnUse"><path
         id="path34"
         d="M 0,0 H 448.5 V 290.25 H 0 Z" /></clipPath><clipPath
       id="clipPath52"
       clipPathUnits="userSpaceOnUse"><path
         id="path50"
         d="m 43.83,35.76 h 398.7 V 241.48 H 43.83 Z" /></clipPath></defs><g
     transform="matrix(1.3333333,0,0,-1.3333333,0,386.66667)"
     id="g10"><g
       id="g12" /><g
       id="g14" /><g
       id="g16" /><g
       id="g18" /><g
       id="g20" /><g
       id="g22" /><g
       id="g24" /><g
       id="g26" /><g
       id="g28" /><g
       id="g30"><g
         clip-path="url(#clipPath36)"
         id="g32"><path
           id="path38"
           style="fill:#ffffff;fill-opacity:1;fill-rule:nonzero;stroke:#ffffff;stroke-width:1.07000005;stroke-linecap:round;stroke-linejoin:round;stroke-miterlimit:10;stroke-dasharray:none;stroke-opacity:1"
           d="M 0,0 H 448.5 V 290.25 H 0 Z" /></g></g><g
       id="g40" /><g
       id="g42" /><g
       id="g44" /><g
       id="g46"><g
         clip-path="url(#clipPath52)"
         id="g48"><path
           id="path54"
           style="fill:#ffffff;fill-opacity:1;fill-rule:nonzero;stroke:none"
           d="m 43.83,35.76 h 398.7 V 241.48 H 43.83 Z" /><path
           id="path56"
           style="fill:#fc4e07;fill-opacity:1;fill-rule:nonzero;stroke:#fc4e07;stroke-width:0.70999998;stroke-linecap:round;stroke-linejoin:round;stroke-miterlimit:10;stroke-dasharray:none;stroke-opacity:1"
           d="m 361.58,45.11 c 0,1.08 0.88,1.96 1.95,1.96 1.08,0 1.96,-0.88 1.96,-1.96 0,-1.07 -0.88,-1.95 -1.96,-1.95 -1.07,0 -1.95,0.88 -1.95,1.95" /><path
           id="path58"
           style="fill:#fc4e07;fill-opacity:1;fill-rule:nonzero;stroke:#fc4e07;stroke-width:0.70999998;stroke-linecap:round;stroke-linejoin:round;stroke-miterlimit:10;stroke-dasharray:none;stroke-opacity:1"
           d="m 371.56,204.48 c 0,1.07 0.88,1.95 1.95,1.95 1.08,0 1.96,-0.88 1.96,-1.95 0,-1.08 -0.88,-1.96 -1.96,-1.96 -1.07,0 -1.95,0.88 -1.95,1.96" /><path
           id="path60"
           style="fill:#fc4e07;fill-opacity:1;fill-rule:nonzero;stroke:#fc4e07;stroke-width:0.70999998;stroke-linecap:round;stroke-linejoin:round;stroke-miterlimit:10;stroke-dasharray:none;stroke-opacity:1"
           d="m 364,183.25 c 0,1.08 0.88,1.96 1.95,1.96 1.08,0 1.96,-0.88 1.96,-1.96 0,-1.07 -0.88,-1.95 -1.96,-1.95 -1.07,0 -1.95,0.88 -1.95,1.95" /><path
           id="path62"
           style="fill:#fc4e07;fill-opacity:1;fill-rule:nonzero;stroke:#fc4e07;stroke-width:0.70999998;stroke-linecap:round;stroke-linejoin:round;stroke-miterlimit:10;stroke-dasharray:none;stroke-opacity:1"
           d="m 373.45,192.21 c 0,1.07 0.88,1.95 1.95,1.95 1.08,0 1.96,-0.88 1.96,-1.95 0,-1.08 -0.88,-1.96 -1.96,-1.96 -1.07,0 -1.95,0.88 -1.95,1.96" /><path
           id="path64"
           style="fill:#fc4e07;fill-opacity:1;fill-rule:nonzero;stroke:#fc4e07;stroke-width:0.70999998;stroke-linecap:round;stroke-linejoin:round;stroke-miterlimit:10;stroke-dasharray:none;stroke-opacity:1"
           d="m 374.59,197.29 c 0,1.08 0.88,1.96 1.96,1.96 1.07,0 1.95,-0.88 1.95,-1.96 0,-1.07 -0.88,-1.95 -1.95,-1.95 -1.08,0 -1.96,0.88 -1.96,1.95" /><path
           id="path66"
           style="fill:#fc4e07;fill-opacity:1;fill-rule:nonzero;stroke:#fc4e07;stroke-width:0.70999998;stroke-linecap:round;stroke-linejoin:round;stroke-miterlimit:10;stroke-dasharray:none;stroke-opacity:1"
           d="m 356.75,197.59 c 0,1.07 0.88,1.95 1.96,1.95 1.07,0 1.95,-0.88 1.95,-1.95 0,-1.08 -0.88,-1.96 -1.95,-1.96 -1.08,0 -1.96,0.88 -1.96,1.96" /><path
           id="path68"
           style="fill:#fc4e07;fill-opacity:1;fill-rule:nonzero;stroke:#fc4e07;stroke-width:0.70999998;stroke-linecap:round;stroke-linejoin:round;stroke-miterlimit:10;stroke-dasharray:none;stroke-opacity:1"
           d="m 366.37,203.65 c 0,1.07 0.88,1.95 1.96,1.95 1.07,0 1.95,-0.88 1.95,-1.95 0,-1.08 -0.88,-1.96 -1.95,-1.96 -1.08,0 -1.96,0.88 -1.96,1.96" /><path
           id="path70"
           style="fill:#fc4e07;fill-opacity:1;fill-rule:nonzero;stroke:#fc4e07;stroke-width:0.70999998;stroke-linecap:round;stroke-linejoin:round;stroke-miterlimit:10;stroke-dasharray:none;stroke-opacity:1"
           d="m 373.64,210.9 c 0,1.08 0.87,1.96 1.95,1.96 1.08,0 1.95,-0.88 1.95,-1.96 0,-1.07 -0.87,-1.95 -1.95,-1.95 -1.08,0 -1.95,0.88 -1.95,1.95" /><path
           id="path72"
           style="fill:#fc4e07;fill-opacity:1;fill-rule:nonzero;stroke:#fc4e07;stroke-width:0.70999998;stroke-linecap:round;stroke-linejoin:round;stroke-miterlimit:10;stroke-dasharray:none;stroke-opacity:1"
           d="m 366.84,202.22 c 0,1.08 0.88,1.96 1.95,1.96 1.08,0 1.96,-0.88 1.96,-1.96 0,-1.07 -0.88,-1.95 -1.96,-1.95 -1.07,0 -1.95,0.88 -1.95,1.95" /><path
           id="path74"
           style="fill:#fc4e07;fill-opacity:1;fill-rule:nonzero;stroke:#fc4e07;stroke-width:0.70999998;stroke-linecap:round;stroke-linejoin:round;stroke-miterlimit:10;stroke-dasharray:none;stroke-opacity:1"
           d="m 364.95,194.45 c 0,1.08 0.88,1.96 1.95,1.96 1.08,0 1.96,-0.88 1.96,-1.96 0,-1.07 -0.88,-1.95 -1.96,-1.95 -1.07,0 -1.95,0.88 -1.95,1.95" /><path
           id="path76"
           style="fill:#e7b800;fill-opacity:1;fill-rule:nonzero;stroke:#e7b800;stroke-width:0.70999998;stroke-linecap:round;stroke-linejoin:round;stroke-miterlimit:10;stroke-dasharray:none;stroke-opacity:1"
           d="m 250.33,212.96 c 0,1.08 0.88,1.96 1.95,1.96 1.08,0 1.96,-0.88 1.96,-1.96 0,-1.07 -0.88,-1.95 -1.96,-1.95 -1.07,0 -1.95,0.88 -1.95,1.95" /><path
           id="path78"
           style="fill:#e7b800;fill-opacity:1;fill-rule:nonzero;stroke:#e7b800;stroke-width:0.70999998;stroke-linecap:round;stroke-linejoin:round;stroke-miterlimit:10;stroke-dasharray:none;stroke-opacity:1"
           d="m 240.29,205.65 c 0,1.07 0.88,1.95 1.95,1.95 1.08,0 1.96,-0.88 1.96,-1.95 0,-1.08 -0.88,-1.96 -1.96,-1.96 -1.07,0 -1.95,0.88 -1.95,1.96" /><path
           id="path80"
           style="fill:#e7b800;fill-opacity:1;fill-rule:nonzero;stroke:#e7b800;stroke-width:0.70999998;stroke-linecap:round;stroke-linejoin:round;stroke-miterlimit:10;stroke-dasharray:none;stroke-opacity:1"
           d="m 244.76,211.44 c 0,1.08 0.88,1.96 1.95,1.96 1.08,0 1.96,-0.88 1.96,-1.96 0,-1.07 -0.88,-1.95 -1.96,-1.95 -1.07,0 -1.95,0.88 -1.95,1.95" /><path
           id="path82"
           style="fill:#e7b800;fill-opacity:1;fill-rule:nonzero;stroke:#e7b800;stroke-width:0.70999998;stroke-linecap:round;stroke-linejoin:round;stroke-miterlimit:10;stroke-dasharray:none;stroke-opacity:1"
           d="m 242.67,198.07 c 0,1.08 0.88,1.96 1.95,1.96 1.08,0 1.96,-0.88 1.96,-1.96 0,-1.07 -0.88,-1.95 -1.96,-1.95 -1.07,0 -1.95,0.88 -1.95,1.95" /><path
           id="path84"
           style="fill:#e7b800;fill-opacity:1;fill-rule:nonzero;stroke:#e7b800;stroke-width:0.70999998;stroke-linecap:round;stroke-linejoin:round;stroke-miterlimit:10;stroke-dasharray:none;stroke-opacity:1"
           d="m 233.3,200.75 c 0,1.07 0.88,1.95 1.96,1.95 1.07,0 1.95,-0.88 1.95,-1.95 0,-1.08 -0.88,-1.96 -1.95,-1.96 -1.08,0 -1.96,0.88 -1.96,1.96" /><path
           id="path86"
           style="fill:#00afbb;fill-opacity:1;fill-rule:nonzero;stroke:#00afbb;stroke-width:0.70999998;stroke-linecap:round;stroke-linejoin:round;stroke-miterlimit:10;stroke-dasharray:none;stroke-opacity:1"
           d="m 124.6,203.28 c 0,1.07 0.88,1.95 1.95,1.95 1.08,0 1.96,-0.88 1.96,-1.95 0,-1.08 -0.88,-1.96 -1.96,-1.96 -1.07,0 -1.95,0.88 -1.95,1.96" /><path
           id="path88"
           style="fill:#00afbb;fill-opacity:1;fill-rule:nonzero;stroke:#00afbb;stroke-width:0.70999998;stroke-linecap:round;stroke-linejoin:round;stroke-miterlimit:10;stroke-dasharray:none;stroke-opacity:1"
           d="m 111.57,211.82 c 0,1.07 0.88,1.95 1.95,1.95 1.08,0 1.96,-0.88 1.96,-1.95 0,-1.08 -0.88,-1.96 -1.96,-1.96 -1.07,0 -1.95,0.88 -1.95,1.96" /><path
           id="path90"
           style="fill:#00afbb;fill-opacity:1;fill-rule:nonzero;stroke:#00afbb;stroke-width:0.70999998;stroke-linecap:round;stroke-linejoin:round;stroke-miterlimit:10;stroke-dasharray:none;stroke-opacity:1"
           d="m 107.5,215.77 c 0,1.08 0.88,1.96 1.95,1.96 1.08,0 1.96,-0.88 1.96,-1.96 0,-1.07 -0.88,-1.95 -1.96,-1.95 -1.07,0 -1.95,0.88 -1.95,1.95" /><path
           id="path92"
           style="fill:#00afbb;fill-opacity:1;fill-rule:nonzero;stroke:#00afbb;stroke-width:0.70999998;stroke-linecap:round;stroke-linejoin:round;stroke-miterlimit:10;stroke-dasharray:none;stroke-opacity:1"
           d="m 113.2,195.41 c 0,1.07 0.88,1.95 1.95,1.95 1.08,0 1.96,-0.88 1.96,-1.95 0,-1.08 -0.88,-1.96 -1.96,-1.96 -1.07,0 -1.95,0.88 -1.95,1.96" /><path
           id="path94"
           style="fill:#00afbb;fill-opacity:1;fill-rule:nonzero;stroke:#00afbb;stroke-width:0.70999998;stroke-linecap:round;stroke-linejoin:round;stroke-miterlimit:10;stroke-dasharray:none;stroke-opacity:1"
           d="m 125.69,201.9 c 0,1.08 0.88,1.96 1.95,1.96 1.08,0 1.96,-0.88 1.96,-1.96 0,-1.07 -0.88,-1.95 -1.96,-1.95 -1.07,0 -1.95,0.88 -1.95,1.95" /><path
           id="path96"
           style="fill:none;stroke:#00afbb;stroke-width:1.07000005;stroke-linecap:butt;stroke-linejoin:round;stroke-miterlimit:10;stroke-dasharray:none;stroke-opacity:1"
           d="m 118.58,198.24 v 15.91" /><path
           id="path98"
           style="fill:none;stroke:#e7b800;stroke-width:1.07000005;stroke-linecap:butt;stroke-linejoin:round;stroke-miterlimit:10;stroke-dasharray:none;stroke-opacity:1"
           d="m 243.17,198.96 v 11.67" /><path
           id="path100"
           style="fill:none;stroke:#fc4e07;stroke-width:1.07000005;stroke-linecap:butt;stroke-linejoin:round;stroke-miterlimit:10;stroke-dasharray:none;stroke-opacity:1"
           d="m 367.77,132.81 v 99.32" /><path
           id="path102"
           style="fill:#00afbb;fill-opacity:1;fill-rule:nonzero;stroke:#00afbb;stroke-width:1.41999996;stroke-linecap:round;stroke-linejoin:round;stroke-miterlimit:10;stroke-dasharray:none;stroke-opacity:1"
           d="m 115.74,206.19 c 0,1.56 1.28,2.84 2.84,2.84 1.57,0 2.84,-1.28 2.84,-2.84 0,-1.56 -1.27,-2.84 -2.84,-2.84 -1.56,0 -2.84,1.28 -2.84,2.84" /><path
           id="path104"
           style="fill:#e7b800;fill-opacity:1;fill-rule:nonzero;stroke:#e7b800;stroke-width:1.41999996;stroke-linecap:round;stroke-linejoin:round;stroke-miterlimit:10;stroke-dasharray:none;stroke-opacity:1"
           d="m 240.33,204.8 c 0,1.56 1.28,2.84 2.84,2.84 1.57,0 2.85,-1.28 2.85,-2.84 0,-1.57 -1.28,-2.85 -2.85,-2.85 -1.56,0 -2.84,1.28 -2.84,2.85" /><path
           id="path106"
           style="fill:#fc4e07;fill-opacity:1;fill-rule:nonzero;stroke:#fc4e07;stroke-width:1.41999996;stroke-linecap:round;stroke-linejoin:round;stroke-miterlimit:10;stroke-dasharray:none;stroke-opacity:1"
           d="m 364.92,182.47 c 0,1.56 1.28,2.84 2.85,2.84 1.56,0 2.84,-1.28 2.84,-2.84 0,-1.56 -1.28,-2.84 -2.84,-2.84 -1.57,0 -2.85,1.28 -2.85,2.84" /></g></g><g
       id="g108" /><g
       id="g110" /><g
       id="g112" /><g
       id="g114" /><g
       id="g116" /><g
       id="g118"><text
         id="text122"
         style="font-variant:normal;font-weight:normal;font-size:12px;font-family:Helvetica;-inkscape-font-specification:Helvetica;writing-mode:lr-tb;fill:#000000;fill-opacity:1;fill-rule:nonzero;stroke:none"
         transform="matrix(1,0,0,-1,21.77,31.65)"><tspan
           id="tspan120"
           y="0"
           x="0 6.6719999 10.008">0.0</tspan></text>
<text
         id="text126"
         style="font-variant:normal;font-weight:normal;font-size:12px;font-family:Helvetica;-inkscape-font-specification:Helvetica;writing-mode:lr-tb;fill:#000000;fill-opacity:1;fill-rule:nonzero;stroke:none"
         transform="matrix(1,0,0,-1,21.77,101.42)"><tspan
           id="tspan124"
           y="0"
           x="0 6.6719999 10.008">0.1</tspan></text>
<text
         id="text130"
         style="font-variant:normal;font-weight:normal;font-size:12px;font-family:Helvetica;-inkscape-font-specification:Helvetica;writing-mode:lr-tb;fill:#000000;fill-opacity:1;fill-rule:nonzero;stroke:none"
         transform="matrix(1,0,0,-1,21.77,171.19)"><tspan
           id="tspan128"
           y="0"
           x="0 6.6719999 10.008">0.2</tspan></text>
</g><g
       id="g132" /><g
       id="g134"><path
         id="path136"
         style="fill:none;stroke:#000000;stroke-width:1.07000005;stroke-linecap:butt;stroke-linejoin:round;stroke-miterlimit:10;stroke-dasharray:none;stroke-opacity:1"
         d="m 40.84,35.96 h 2.99" /><path
         id="path138"
         style="fill:none;stroke:#000000;stroke-width:1.07000005;stroke-linecap:butt;stroke-linejoin:round;stroke-miterlimit:10;stroke-dasharray:none;stroke-opacity:1"
         d="m 40.84,105.73 h 2.99" /><path
         id="path140"
         style="fill:none;stroke:#000000;stroke-width:1.07000005;stroke-linecap:butt;stroke-linejoin:round;stroke-miterlimit:10;stroke-dasharray:none;stroke-opacity:1"
         d="m 40.84,175.49 h 2.99" /></g><g
       id="g142" /><g
       id="g144" /><g
       id="g146" /><g
       id="g148" /><g
       id="g150" /><g
       id="g152" /><g
       id="g154" /><g
       id="g156"><path
         id="path158"
         style="fill:none;stroke:#000000;stroke-width:1.07000005;stroke-linecap:butt;stroke-linejoin:round;stroke-miterlimit:10;stroke-dasharray:none;stroke-opacity:1"
         d="m 118.58,32.77 v 2.99" /><path
         id="path160"
         style="fill:none;stroke:#000000;stroke-width:1.07000005;stroke-linecap:butt;stroke-linejoin:round;stroke-miterlimit:10;stroke-dasharray:none;stroke-opacity:1"
         d="m 243.17,32.77 v 2.99" /><path
         id="path162"
         style="fill:none;stroke:#000000;stroke-width:1.07000005;stroke-linecap:butt;stroke-linejoin:round;stroke-miterlimit:10;stroke-dasharray:none;stroke-opacity:1"
         d="m 367.77,32.77 v 2.99" /></g><g
       id="g164" /><g
       id="g166"><text
         id="text170"
         style="font-variant:normal;font-weight:normal;font-size:12px;font-family:Helvetica;-inkscape-font-specification:Helvetica;writing-mode:lr-tb;fill:#000000;fill-opacity:1;fill-rule:nonzero;stroke:none"
         transform="matrix(1,0,0,-1,106.25,21.77)"><tspan
           id="tspan168"
           y="0"
           x="0 6.6719999 9.3360004 12 18.672001">alluv</tspan></text>
<text
         id="text174"
         style="font-variant:normal;font-weight:normal;font-size:12px;font-family:Helvetica;-inkscape-font-specification:Helvetica;writing-mode:lr-tb;fill:#000000;fill-opacity:1;fill-rule:nonzero;stroke:none"
         transform="matrix(1,0,0,-1,232.18,21.77)"><tspan
           id="tspan172"
           y="0"
           x="0 2.664 5.3280001 15.324">lime</tspan></text>
<text
         id="text178"
         style="font-variant:normal;font-weight:normal;font-size:12px;font-family:Helvetica;-inkscape-font-specification:Helvetica;writing-mode:lr-tb;fill:#000000;fill-opacity:1;fill-rule:nonzero;stroke:none"
         transform="matrix(1,0,0,-1,357.25,21.77)"><tspan
           id="tspan176"
           y="0"
           x="0 5.6999998 12.372 15.036">volc</tspan></text>
</g><g
       id="g180" /><g
       id="g182" /><g
       id="g184" /><g
       id="g186"><text
         id="text190"
         style="font-variant:normal;font-weight:normal;font-size:12px;font-family:Helvetica;-inkscape-font-specification:Helvetica;writing-mode:lr-tb;fill:#000000;fill-opacity:1;fill-rule:nonzero;stroke:none"
         transform="matrix(1,0,0,-1,233.5,8.37)"><tspan
           id="tspan188"
           y="0"
           x="0 6.6719999 9.3360004 12.672">Lith</tspan></text>
</g><g
       id="g192" /><g
       id="g194"><text
         id="text198"
         style="font-variant:normal;font-weight:normal;font-size:12px;font-family:Helvetica;-inkscape-font-specification:Helvetica;writing-mode:lr-tb;fill:#000000;fill-opacity:1;fill-rule:nonzero;stroke:none"
         transform="matrix(0,1,1,0,16.98,115.28)"><tspan
           id="tspan196"
           y="0"
           x="0 9.9960003 16.667999 23.34 30.011999 36.683998">Mn_ppm</tspan></text>
</g><g
       id="g200" /><g
       id="g202" /><g
       id="g204" /><g
       id="g206"><path
         id="path208"
         style="fill:#ffffff;fill-opacity:1;fill-rule:nonzero;stroke:none"
         d="m 168.56,249.98 h 149.23 v 25.78 H 168.56 Z" /></g><g
       id="g210" /><g
       id="g212"><text
         id="text216"
         style="font-variant:normal;font-weight:normal;font-size:12px;font-family:Helvetica;-inkscape-font-specification:Helvetica;writing-mode:lr-tb;fill:#000000;fill-opacity:1;fill-rule:nonzero;stroke:none"
         transform="matrix(1,0,0,-1,172.81,258.57)"><tspan
           id="tspan214"
           y="0"
           x="0 6.6719999 9.3360004 12.672">Lith</tspan></text>
</g><g
       id="g218" /><g
       id="g220" /><g
       id="g222" /><g
       id="g224"><path
         id="path226"
         style="fill:#00afbb;fill-opacity:1;fill-rule:nonzero;stroke:#00afbb;stroke-width:0.70999998;stroke-linecap:round;stroke-linejoin:round;stroke-miterlimit:10;stroke-dasharray:none;stroke-opacity:1"
         d="m 203.17,262.88 c 0,1.07 0.87,1.95 1.95,1.95 1.07,0 1.95,-0.88 1.95,-1.95 0,-1.08 -0.88,-1.96 -1.95,-1.96 -1.08,0 -1.95,0.88 -1.95,1.96" /></g><g
       id="g228" /><g
       id="g230"><path
         id="path232"
         style="fill:none;stroke:#00afbb;stroke-width:1.07000005;stroke-linecap:butt;stroke-linejoin:round;stroke-miterlimit:10;stroke-dasharray:none;stroke-opacity:1"
         d="m 205.12,255.96 v 13.83" /><path
         id="path234"
         style="fill:#00afbb;fill-opacity:1;fill-rule:nonzero;stroke:#00afbb;stroke-width:1.41999996;stroke-linecap:round;stroke-linejoin:round;stroke-miterlimit:10;stroke-dasharray:none;stroke-opacity:1"
         d="m 202.28,262.88 c 0,1.56 1.28,2.84 2.84,2.84 1.56,0 2.84,-1.28 2.84,-2.84 0,-1.57 -1.28,-2.85 -2.84,-2.85 -1.56,0 -2.84,1.28 -2.84,2.85" /></g><g
       id="g236" /><g
       id="g238" /><g
       id="g240" /><g
       id="g242"><path
         id="path244"
         style="fill:#e7b800;fill-opacity:1;fill-rule:nonzero;stroke:#e7b800;stroke-width:0.70999998;stroke-linecap:round;stroke-linejoin:round;stroke-miterlimit:10;stroke-dasharray:none;stroke-opacity:1"
         d="m 244.51,262.88 c 0,1.07 0.88,1.95 1.95,1.95 1.08,0 1.96,-0.88 1.96,-1.95 0,-1.08 -0.88,-1.96 -1.96,-1.96 -1.07,0 -1.95,0.88 -1.95,1.96" /></g><g
       id="g246" /><g
       id="g248"><path
         id="path250"
         style="fill:none;stroke:#e7b800;stroke-width:1.07000005;stroke-linecap:butt;stroke-linejoin:round;stroke-miterlimit:10;stroke-dasharray:none;stroke-opacity:1"
         d="m 246.46,255.96 v 13.83" /><path
         id="path252"
         style="fill:#e7b800;fill-opacity:1;fill-rule:nonzero;stroke:#e7b800;stroke-width:1.41999996;stroke-linecap:round;stroke-linejoin:round;stroke-miterlimit:10;stroke-dasharray:none;stroke-opacity:1"
         d="m 243.62,262.88 c 0,1.56 1.28,2.84 2.84,2.84 1.57,0 2.85,-1.28 2.85,-2.84 0,-1.57 -1.28,-2.85 -2.85,-2.85 -1.56,0 -2.84,1.28 -2.84,2.85" /></g><g
       id="g254" /><g
       id="g256" /><g
       id="g258" /><g
       id="g260"><path
         id="path262"
         style="fill:#fc4e07;fill-opacity:1;fill-rule:nonzero;stroke:#fc4e07;stroke-width:0.70999998;stroke-linecap:round;stroke-linejoin:round;stroke-miterlimit:10;stroke-dasharray:none;stroke-opacity:1"
         d="m 283.71,262.88 c 0,1.07 0.88,1.95 1.96,1.95 1.07,0 1.95,-0.88 1.95,-1.95 0,-1.08 -0.88,-1.96 -1.95,-1.96 -1.08,0 -1.96,0.88 -1.96,1.96" /></g><g
       id="g264" /><g
       id="g266"><path
         id="path268"
         style="fill:none;stroke:#fc4e07;stroke-width:1.07000005;stroke-linecap:butt;stroke-linejoin:round;stroke-miterlimit:10;stroke-dasharray:none;stroke-opacity:1"
         d="m 285.67,255.96 v 13.83" /><path
         id="path270"
         style="fill:#fc4e07;fill-opacity:1;fill-rule:nonzero;stroke:#fc4e07;stroke-width:1.41999996;stroke-linecap:round;stroke-linejoin:round;stroke-miterlimit:10;stroke-dasharray:none;stroke-opacity:1"
         d="m 282.82,262.88 c 0,1.56 1.28,2.84 2.85,2.84 1.56,0 2.84,-1.28 2.84,-2.84 0,-1.57 -1.28,-2.85 -2.84,-2.85 -1.57,0 -2.85,1.28 -2.85,2.85" /></g><g
       id="g272" /><g
       id="g274"><text
         id="text278"
         style="font-variant:normal;font-weight:normal;font-size:10px;font-family:Helvetica;-inkscape-font-specification:Helvetica;writing-mode:lr-tb;fill:#000000;fill-opacity:1;fill-rule:nonzero;stroke:none"
         transform="matrix(1,0,0,-1,215.92,259.29)"><tspan
           id="tspan276"
           y="0"
           x="0 5.5599999 7.7800002 10 15.56">alluv</tspan></text>
</g><g
       id="g280" /><g
       id="g282"><text
         id="text286"
         style="font-variant:normal;font-weight:normal;font-size:10px;font-family:Helvetica;-inkscape-font-specification:Helvetica;writing-mode:lr-tb;fill:#000000;fill-opacity:1;fill-rule:nonzero;stroke:none"
         transform="matrix(1,0,0,-1,257.26,259.29)"><tspan
           id="tspan284"
           y="0"
           x="0 2.22 4.4400001 12.77">lime</tspan></text>
</g><g
       id="g288" /><g
       id="g290"><text
         id="text294"
         style="font-variant:normal;font-weight:normal;font-size:10px;font-family:Helvetica;-inkscape-font-specification:Helvetica;writing-mode:lr-tb;fill:#000000;fill-opacity:1;fill-rule:nonzero;stroke:none"
         transform="matrix(1,0,0,-1,296.47,259.29)"><tspan
           id="tspan292"
           y="0"
           x="0 4.75 10.31 12.53">volc</tspan></text>
</g><g
       id="g296" /><g
       id="g298" /><g
       id="g300" /><g
       id="g302" /><g
       id="g304" /><g
       id="g306" /></g></svg>