<?xml version="1.0" encoding="UTF-8" standalone="no"?>
<svg
   xmlns:dc="http://purl.org/dc/elements/1.1/"
   xmlns:cc="http://creativecommons.org/ns#"
   xmlns:rdf="http://www.w3.org/1999/02/22-rdf-syntax-ns#"
   xmlns:svg="http://www.w3.org/2000/svg"
   xmlns="http://www.w3.org/2000/svg"
   viewBox="0 0 597.33331 386.66666"
   height="386.66666"
   width="597.33331"
   xml:space="preserve"
   id="svg2"
   version="1.1"><metadata
     id="metadata8"><rdf:RDF><cc:Work
         rdf:about=""><dc:format>image/svg+xml</dc:format><dc:type
           rdf:resource="http://purl.org/dc/dcmitype/StillImage" /></cc:Work></rdf:RDF></metadata><defs
     id="defs6"><clipPath
       id="clipPath36"
       clipPathUnits="userSpaceOnUse"><path
         id="path34"
         d="M 0,0 H 448.5 V 290.25 H 0 Z" /></clipPath><clipPath
       id="clipPath52"
       clipPathUnits="userSpaceOnUse"><path
         id="path50"
         d="M 47.16,35.76 H 442.52 V 241.48 H 47.16 Z" /></clipPath></defs><g
     transform="matrix(1.3333333,0,0,-1.3333333,0,386.66667)"
     id="g10"><g
       id="g12" /><g
       id="g14" /><g
       id="g16" /><g
       id="g18" /><g
       id="g20" /><g
       id="g22" /><g
       id="g24" /><g
       id="g26" /><g
       id="g28" /><g
       id="g30"><g
         clip-path="url(#clipPath36)"
         id="g32"><path
           id="path38"
           style="fill:#ffffff;fill-opacity:1;fill-rule:nonzero;stroke:#ffffff;stroke-width:1.07000005;stroke-linecap:round;stroke-linejoin:round;stroke-miterlimit:10;stroke-dasharray:none;stroke-opacity:1"
           d="M 0,0 H 448.5 V 290.25 H 0 Z" /></g></g><g
       id="g40" /><g
       id="g42" /><g
       id="g44" /><g
       id="g46"><g
         clip-path="url(#clipPath52)"
         id="g48"><path
           id="path54"
           style="fill:#ffffff;fill-opacity:1;fill-rule:nonzero;stroke:none"
           d="M 47.16,35.76 H 442.52 V 241.48 H 47.16 Z" /><path
           id="path56"
           style="fill:#fc4e07;fill-opacity:1;fill-rule:nonzero;stroke:#fc4e07;stroke-width:0.70999998;stroke-linecap:round;stroke-linejoin:round;stroke-miterlimit:10;stroke-dasharray:none;stroke-opacity:1"
           d="m 362.24,65.32 c 0,1.08 0.88,1.96 1.95,1.96 1.08,0 1.96,-0.88 1.96,-1.96 0,-1.07 -0.88,-1.95 -1.96,-1.95 -1.07,0 -1.95,0.88 -1.95,1.95" /><path
           id="path58"
           style="fill:#fc4e07;fill-opacity:1;fill-rule:nonzero;stroke:#fc4e07;stroke-width:0.70999998;stroke-linecap:round;stroke-linejoin:round;stroke-miterlimit:10;stroke-dasharray:none;stroke-opacity:1"
           d="m 372.14,65.32 c 0,1.08 0.88,1.95 1.95,1.95 1.08,0 1.96,-0.87 1.96,-1.95 0,-1.08 -0.88,-1.95 -1.96,-1.95 -1.07,0 -1.95,0.87 -1.95,1.95" /><path
           id="path60"
           style="fill:#fc4e07;fill-opacity:1;fill-rule:nonzero;stroke:#fc4e07;stroke-width:0.70999998;stroke-linecap:round;stroke-linejoin:round;stroke-miterlimit:10;stroke-dasharray:none;stroke-opacity:1"
           d="m 364.64,65.37 c 0,1.07 0.88,1.95 1.95,1.95 1.08,0 1.96,-0.88 1.96,-1.95 0,-1.08 -0.88,-1.96 -1.96,-1.96 -1.07,0 -1.95,0.88 -1.95,1.96" /><path
           id="path62"
           style="fill:#fc4e07;fill-opacity:1;fill-rule:nonzero;stroke:#fc4e07;stroke-width:0.70999998;stroke-linecap:round;stroke-linejoin:round;stroke-miterlimit:10;stroke-dasharray:none;stroke-opacity:1"
           d="m 374.01,65.36 c 0,1.07 0.88,1.95 1.95,1.95 1.08,0 1.96,-0.88 1.96,-1.95 0,-1.08 -0.88,-1.96 -1.96,-1.96 -1.07,0 -1.95,0.88 -1.95,1.96" /><path
           id="path64"
           style="fill:#fc4e07;fill-opacity:1;fill-rule:nonzero;stroke:#fc4e07;stroke-width:0.70999998;stroke-linecap:round;stroke-linejoin:round;stroke-miterlimit:10;stroke-dasharray:none;stroke-opacity:1"
           d="m 375.14,65.41 c 0,1.08 0.88,1.96 1.96,1.96 1.07,0 1.95,-0.88 1.95,-1.96 0,-1.07 -0.88,-1.95 -1.95,-1.95 -1.08,0 -1.96,0.88 -1.96,1.95" /><path
           id="path66"
           style="fill:#fc4e07;fill-opacity:1;fill-rule:nonzero;stroke:#fc4e07;stroke-width:0.70999998;stroke-linecap:round;stroke-linejoin:round;stroke-miterlimit:10;stroke-dasharray:none;stroke-opacity:1"
           d="m 357.45,65.4 c 0,1.08 0.88,1.96 1.96,1.96 1.07,0 1.95,-0.88 1.95,-1.96 0,-1.07 -0.88,-1.95 -1.95,-1.95 -1.08,0 -1.96,0.88 -1.96,1.95" /><path
           id="path68"
           style="fill:#fc4e07;fill-opacity:1;fill-rule:nonzero;stroke:#fc4e07;stroke-width:0.70999998;stroke-linecap:round;stroke-linejoin:round;stroke-miterlimit:10;stroke-dasharray:none;stroke-opacity:1"
           d="m 366.99,65.41 c 0,1.08 0.88,1.96 1.96,1.96 1.07,0 1.95,-0.88 1.95,-1.96 0,-1.07 -0.88,-1.95 -1.95,-1.95 -1.08,0 -1.96,0.88 -1.96,1.95" /><path
           id="path70"
           style="fill:#fc4e07;fill-opacity:1;fill-rule:nonzero;stroke:#fc4e07;stroke-width:0.70999998;stroke-linecap:round;stroke-linejoin:round;stroke-miterlimit:10;stroke-dasharray:none;stroke-opacity:1"
           d="m 374.2,65.41 c 0,1.08 0.87,1.96 1.95,1.96 1.08,0 1.95,-0.88 1.95,-1.96 0,-1.07 -0.87,-1.95 -1.95,-1.95 -1.08,0 -1.95,0.88 -1.95,1.95" /><path
           id="path72"
           style="fill:#fc4e07;fill-opacity:1;fill-rule:nonzero;stroke:#fc4e07;stroke-width:0.70999998;stroke-linecap:round;stroke-linejoin:round;stroke-miterlimit:10;stroke-dasharray:none;stroke-opacity:1"
           d="m 367.45,65.39 c 0,1.08 0.88,1.96 1.96,1.96 1.07,0 1.95,-0.88 1.95,-1.96 0,-1.07 -0.88,-1.95 -1.95,-1.95 -1.08,0 -1.96,0.88 -1.96,1.95" /><path
           id="path74"
           style="fill:#fc4e07;fill-opacity:1;fill-rule:nonzero;stroke:#fc4e07;stroke-width:0.70999998;stroke-linecap:round;stroke-linejoin:round;stroke-miterlimit:10;stroke-dasharray:none;stroke-opacity:1"
           d="m 365.58,65.4 c 0,1.07 0.88,1.95 1.95,1.95 1.08,0 1.96,-0.88 1.96,-1.95 0,-1.08 -0.88,-1.96 -1.96,-1.96 -1.07,0 -1.95,0.88 -1.95,1.96" /><path
           id="path76"
           style="fill:#e7b800;fill-opacity:1;fill-rule:nonzero;stroke:#e7b800;stroke-width:0.70999998;stroke-linecap:round;stroke-linejoin:round;stroke-miterlimit:10;stroke-dasharray:none;stroke-opacity:1"
           d="m 251.92,81.82 c 0,1.07 0.88,1.95 1.95,1.95 1.08,0 1.96,-0.88 1.96,-1.95 0,-1.08 -0.88,-1.96 -1.96,-1.96 -1.07,0 -1.95,0.88 -1.95,1.96" /><path
           id="path78"
           style="fill:#e7b800;fill-opacity:1;fill-rule:nonzero;stroke:#e7b800;stroke-width:0.70999998;stroke-linecap:round;stroke-linejoin:round;stroke-miterlimit:10;stroke-dasharray:none;stroke-opacity:1"
           d="m 241.97,82.83 c 0,1.07 0.87,1.95 1.95,1.95 1.08,0 1.95,-0.88 1.95,-1.95 0,-1.08 -0.87,-1.96 -1.95,-1.96 -1.08,0 -1.95,0.88 -1.95,1.96" /><path
           id="path80"
           style="fill:#e7b800;fill-opacity:1;fill-rule:nonzero;stroke:#e7b800;stroke-width:0.70999998;stroke-linecap:round;stroke-linejoin:round;stroke-miterlimit:10;stroke-dasharray:none;stroke-opacity:1"
           d="m 246.4,232.13 c 0,1.07 0.88,1.95 1.95,1.95 1.08,0 1.96,-0.88 1.96,-1.95 0,-1.08 -0.88,-1.96 -1.96,-1.96 -1.07,0 -1.95,0.88 -1.95,1.96" /><path
           id="path82"
           style="fill:#e7b800;fill-opacity:1;fill-rule:nonzero;stroke:#e7b800;stroke-width:0.70999998;stroke-linecap:round;stroke-linejoin:round;stroke-miterlimit:10;stroke-dasharray:none;stroke-opacity:1"
           d="m 244.32,82.09 c 0,1.08 0.88,1.96 1.96,1.96 1.07,0 1.95,-0.88 1.95,-1.96 0,-1.07 -0.88,-1.95 -1.95,-1.95 -1.08,0 -1.96,0.88 -1.96,1.95" /><path
           id="path84"
           style="fill:#e7b800;fill-opacity:1;fill-rule:nonzero;stroke:#e7b800;stroke-width:0.70999998;stroke-linecap:round;stroke-linejoin:round;stroke-miterlimit:10;stroke-dasharray:none;stroke-opacity:1"
           d="m 235.04,82 c 0,1.07 0.88,1.95 1.95,1.95 1.08,0 1.96,-0.88 1.96,-1.95 0,-1.08 -0.88,-1.96 -1.96,-1.96 -1.07,0 -1.95,0.88 -1.95,1.96" /><path
           id="path86"
           style="fill:#00afbb;fill-opacity:1;fill-rule:nonzero;stroke:#00afbb;stroke-width:0.70999998;stroke-linecap:round;stroke-linejoin:round;stroke-miterlimit:10;stroke-dasharray:none;stroke-opacity:1"
           d="m 127.24,69.26 c 0,1.07 0.88,1.95 1.96,1.95 1.07,0 1.95,-0.88 1.95,-1.95 0,-1.08 -0.88,-1.96 -1.95,-1.96 -1.08,0 -1.96,0.88 -1.96,1.96" /><path
           id="path88"
           style="fill:#00afbb;fill-opacity:1;fill-rule:nonzero;stroke:#00afbb;stroke-width:0.70999998;stroke-linecap:round;stroke-linejoin:round;stroke-miterlimit:10;stroke-dasharray:none;stroke-opacity:1"
           d="m 114.32,69.35 c 0,1.08 0.88,1.96 1.95,1.96 1.08,0 1.96,-0.88 1.96,-1.96 0,-1.07 -0.88,-1.95 -1.96,-1.95 -1.07,0 -1.95,0.88 -1.95,1.95" /><path
           id="path90"
           style="fill:#00afbb;fill-opacity:1;fill-rule:nonzero;stroke:#00afbb;stroke-width:0.70999998;stroke-linecap:round;stroke-linejoin:round;stroke-miterlimit:10;stroke-dasharray:none;stroke-opacity:1"
           d="m 110.29,69.17 c 0,1.07 0.87,1.95 1.95,1.95 1.08,0 1.95,-0.88 1.95,-1.95 0,-1.08 -0.87,-1.96 -1.95,-1.96 -1.08,0 -1.95,0.88 -1.95,1.96" /><path
           id="path92"
           style="fill:#00afbb;fill-opacity:1;fill-rule:nonzero;stroke:#00afbb;stroke-width:0.70999998;stroke-linecap:round;stroke-linejoin:round;stroke-miterlimit:10;stroke-dasharray:none;stroke-opacity:1"
           d="m 115.94,69.35 c 0,1.08 0.88,1.95 1.95,1.95 1.08,0 1.96,-0.87 1.96,-1.95 0,-1.08 -0.88,-1.95 -1.96,-1.95 -1.07,0 -1.95,0.87 -1.95,1.95" /><path
           id="path94"
           style="fill:#00afbb;fill-opacity:1;fill-rule:nonzero;stroke:#00afbb;stroke-width:0.70999998;stroke-linecap:round;stroke-linejoin:round;stroke-miterlimit:10;stroke-dasharray:none;stroke-opacity:1"
           d="m 128.32,69.26 c 0,1.07 0.88,1.95 1.96,1.95 1.07,0 1.95,-0.88 1.95,-1.95 0,-1.08 -0.88,-1.96 -1.95,-1.96 -1.08,0 -1.96,0.88 -1.96,1.96" /><path
           id="path96"
           style="fill:none;stroke:#00afbb;stroke-width:1.07000005;stroke-linecap:butt;stroke-linejoin:round;stroke-miterlimit:10;stroke-dasharray:none;stroke-opacity:1"
           d="m 121.29,69.2 v 0.15" /><path
           id="path98"
           style="fill:none;stroke:#e7b800;stroke-width:1.07000005;stroke-linecap:butt;stroke-linejoin:round;stroke-miterlimit:10;stroke-dasharray:none;stroke-opacity:1"
           d="M 244.84,45.11 V 179.23" /><path
           id="path100"
           style="fill:none;stroke:#fc4e07;stroke-width:1.07000005;stroke-linecap:butt;stroke-linejoin:round;stroke-miterlimit:10;stroke-dasharray:none;stroke-opacity:1"
           d="m 368.39,65.34 v 0.07" /><path
           id="path102"
           style="fill:#00afbb;fill-opacity:1;fill-rule:nonzero;stroke:#00afbb;stroke-width:1.41999996;stroke-linecap:round;stroke-linejoin:round;stroke-miterlimit:10;stroke-dasharray:none;stroke-opacity:1"
           d="m 118.45,69.28 c 0,1.56 1.28,2.84 2.84,2.84 1.57,0 2.85,-1.28 2.85,-2.84 0,-1.57 -1.28,-2.84 -2.85,-2.84 -1.56,0 -2.84,1.27 -2.84,2.84" /><path
           id="path104"
           style="fill:#e7b800;fill-opacity:1;fill-rule:nonzero;stroke:#e7b800;stroke-width:1.41999996;stroke-linecap:round;stroke-linejoin:round;stroke-miterlimit:10;stroke-dasharray:none;stroke-opacity:1"
           d="m 242,112.17 c 0,1.57 1.28,2.84 2.84,2.84 1.57,0 2.85,-1.27 2.85,-2.84 0,-1.56 -1.28,-2.84 -2.85,-2.84 -1.56,0 -2.84,1.28 -2.84,2.84" /><path
           id="path106"
           style="fill:#fc4e07;fill-opacity:1;fill-rule:nonzero;stroke:#fc4e07;stroke-width:1.41999996;stroke-linecap:round;stroke-linejoin:round;stroke-miterlimit:10;stroke-dasharray:none;stroke-opacity:1"
           d="m 365.55,65.38 c 0,1.56 1.28,2.84 2.84,2.84 1.57,0 2.85,-1.28 2.85,-2.84 0,-1.57 -1.28,-2.84 -2.85,-2.84 -1.56,0 -2.84,1.27 -2.84,2.84" /></g></g><g
       id="g108" /><g
       id="g110" /><g
       id="g112" /><g
       id="g114" /><g
       id="g116" /><g
       id="g118"><text
         id="text122"
         style="font-variant:normal;font-weight:normal;font-size:12px;font-family:Helvetica;-inkscape-font-specification:Helvetica;writing-mode:lr-tb;fill:#000000;fill-opacity:1;fill-rule:nonzero;stroke:none"
         transform="matrix(1,0,0,-1,35.11,61.01)"><tspan
           id="tspan120"
           y="0"
           x="0">0</tspan></text>
<text
         id="text126"
         style="font-variant:normal;font-weight:normal;font-size:12px;font-family:Helvetica;-inkscape-font-specification:Helvetica;writing-mode:lr-tb;fill:#000000;fill-opacity:1;fill-rule:nonzero;stroke:none"
         transform="matrix(1,0,0,-1,28.44,106.84)"><tspan
           id="tspan124"
           y="0"
           x="0 6.6719999">50</tspan></text>
<text
         id="text130"
         style="font-variant:normal;font-weight:normal;font-size:12px;font-family:Helvetica;-inkscape-font-specification:Helvetica;writing-mode:lr-tb;fill:#000000;fill-opacity:1;fill-rule:nonzero;stroke:none"
         transform="matrix(1,0,0,-1,21.77,152.66)"><tspan
           id="tspan128"
           y="0"
           x="0 6.6719999 13.344">100</tspan></text>
<text
         id="text134"
         style="font-variant:normal;font-weight:normal;font-size:12px;font-family:Helvetica;-inkscape-font-specification:Helvetica;writing-mode:lr-tb;fill:#000000;fill-opacity:1;fill-rule:nonzero;stroke:none"
         transform="matrix(1,0,0,-1,21.77,198.49)"><tspan
           id="tspan132"
           y="0"
           x="0 6.6719999 13.344">150</tspan></text>
</g><g
       id="g136" /><g
       id="g138"><path
         id="path140"
         style="fill:none;stroke:#000000;stroke-width:1.07000005;stroke-linecap:butt;stroke-linejoin:round;stroke-miterlimit:10;stroke-dasharray:none;stroke-opacity:1"
         d="m 44.17,65.32 h 2.99" /><path
         id="path142"
         style="fill:none;stroke:#000000;stroke-width:1.07000005;stroke-linecap:butt;stroke-linejoin:round;stroke-miterlimit:10;stroke-dasharray:none;stroke-opacity:1"
         d="m 44.17,111.15 h 2.99" /><path
         id="path144"
         style="fill:none;stroke:#000000;stroke-width:1.07000005;stroke-linecap:butt;stroke-linejoin:round;stroke-miterlimit:10;stroke-dasharray:none;stroke-opacity:1"
         d="m 44.17,156.97 h 2.99" /><path
         id="path146"
         style="fill:none;stroke:#000000;stroke-width:1.07000005;stroke-linecap:butt;stroke-linejoin:round;stroke-miterlimit:10;stroke-dasharray:none;stroke-opacity:1"
         d="m 44.17,202.8 h 2.99" /></g><g
       id="g148" /><g
       id="g150" /><g
       id="g152" /><g
       id="g154" /><g
       id="g156" /><g
       id="g158" /><g
       id="g160" /><g
       id="g162"><path
         id="path164"
         style="fill:none;stroke:#000000;stroke-width:1.07000005;stroke-linecap:butt;stroke-linejoin:round;stroke-miterlimit:10;stroke-dasharray:none;stroke-opacity:1"
         d="m 121.29,32.77 v 2.99" /><path
         id="path166"
         style="fill:none;stroke:#000000;stroke-width:1.07000005;stroke-linecap:butt;stroke-linejoin:round;stroke-miterlimit:10;stroke-dasharray:none;stroke-opacity:1"
         d="m 244.84,32.77 v 2.99" /><path
         id="path168"
         style="fill:none;stroke:#000000;stroke-width:1.07000005;stroke-linecap:butt;stroke-linejoin:round;stroke-miterlimit:10;stroke-dasharray:none;stroke-opacity:1"
         d="m 368.39,32.77 v 2.99" /></g><g
       id="g170" /><g
       id="g172"><text
         id="text176"
         style="font-variant:normal;font-weight:normal;font-size:12px;font-family:Helvetica;-inkscape-font-specification:Helvetica;writing-mode:lr-tb;fill:#000000;fill-opacity:1;fill-rule:nonzero;stroke:none"
         transform="matrix(1,0,0,-1,108.96,21.77)"><tspan
           id="tspan174"
           y="0"
           x="0 6.6719999 9.3360004 12 18.672001">alluv</tspan></text>
<text
         id="text180"
         style="font-variant:normal;font-weight:normal;font-size:12px;font-family:Helvetica;-inkscape-font-specification:Helvetica;writing-mode:lr-tb;fill:#000000;fill-opacity:1;fill-rule:nonzero;stroke:none"
         transform="matrix(1,0,0,-1,233.84,21.77)"><tspan
           id="tspan178"
           y="0"
           x="0 2.664 5.3280001 15.324">lime</tspan></text>
<text
         id="text184"
         style="font-variant:normal;font-weight:normal;font-size:12px;font-family:Helvetica;-inkscape-font-specification:Helvetica;writing-mode:lr-tb;fill:#000000;fill-opacity:1;fill-rule:nonzero;stroke:none"
         transform="matrix(1,0,0,-1,357.87,21.77)"><tspan
           id="tspan182"
           y="0"
           x="0 5.6999998 12.372 15.036">volc</tspan></text>
</g><g
       id="g186" /><g
       id="g188" /><g
       id="g190" /><g
       id="g192"><text
         id="text196"
         style="font-variant:normal;font-weight:normal;font-size:12px;font-family:Helvetica;-inkscape-font-specification:Helvetica;writing-mode:lr-tb;fill:#000000;fill-opacity:1;fill-rule:nonzero;stroke:none"
         transform="matrix(1,0,0,-1,235.17,8.37)"><tspan
           id="tspan194"
           y="0"
           x="0 6.6719999 9.3360004 12.672">Lith</tspan></text>
</g><g
       id="g198" /><g
       id="g200"><text
         id="text204"
         style="font-variant:normal;font-weight:normal;font-size:12px;font-family:Helvetica;-inkscape-font-specification:Helvetica;writing-mode:lr-tb;fill:#000000;fill-opacity:1;fill-rule:nonzero;stroke:none"
         transform="matrix(0,1,1,0,16.98,111.28)"><tspan
           id="tspan202"
           y="0"
           x="0 8.6639996 18 24.672001 31.344 38.015999 44.688">CO3_ppm</tspan></text>
</g><g
       id="g206" /><g
       id="g208" /><g
       id="g210" /><g
       id="g212"><path
         id="path214"
         style="fill:#ffffff;fill-opacity:1;fill-rule:nonzero;stroke:none"
         d="m 170.23,249.98 h 149.23 v 25.78 H 170.23 Z" /></g><g
       id="g216" /><g
       id="g218"><text
         id="text222"
         style="font-variant:normal;font-weight:normal;font-size:12px;font-family:Helvetica;-inkscape-font-specification:Helvetica;writing-mode:lr-tb;fill:#000000;fill-opacity:1;fill-rule:nonzero;stroke:none"
         transform="matrix(1,0,0,-1,174.48,258.57)"><tspan
           id="tspan220"
           y="0"
           x="0 6.6719999 9.3360004 12.672">Lith</tspan></text>
</g><g
       id="g224" /><g
       id="g226" /><g
       id="g228" /><g
       id="g230"><path
         id="path232"
         style="fill:#00afbb;fill-opacity:1;fill-rule:nonzero;stroke:#00afbb;stroke-width:0.70999998;stroke-linecap:round;stroke-linejoin:round;stroke-miterlimit:10;stroke-dasharray:none;stroke-opacity:1"
         d="m 204.83,262.88 c 0,1.07 0.88,1.95 1.96,1.95 1.07,0 1.95,-0.88 1.95,-1.95 0,-1.08 -0.88,-1.96 -1.95,-1.96 -1.08,0 -1.96,0.88 -1.96,1.96" /></g><g
       id="g234" /><g
       id="g236"><path
         id="path238"
         style="fill:none;stroke:#00afbb;stroke-width:1.07000005;stroke-linecap:butt;stroke-linejoin:round;stroke-miterlimit:10;stroke-dasharray:none;stroke-opacity:1"
         d="m 206.79,255.96 v 13.83" /><path
         id="path240"
         style="fill:#00afbb;fill-opacity:1;fill-rule:nonzero;stroke:#00afbb;stroke-width:1.41999996;stroke-linecap:round;stroke-linejoin:round;stroke-miterlimit:10;stroke-dasharray:none;stroke-opacity:1"
         d="m 203.95,262.88 c 0,1.56 1.27,2.84 2.84,2.84 1.56,0 2.84,-1.28 2.84,-2.84 0,-1.57 -1.28,-2.85 -2.84,-2.85 -1.57,0 -2.84,1.28 -2.84,2.85" /></g><g
       id="g242" /><g
       id="g244" /><g
       id="g246" /><g
       id="g248"><path
         id="path250"
         style="fill:#e7b800;fill-opacity:1;fill-rule:nonzero;stroke:#e7b800;stroke-width:0.70999998;stroke-linecap:round;stroke-linejoin:round;stroke-miterlimit:10;stroke-dasharray:none;stroke-opacity:1"
         d="m 246.18,262.88 c 0,1.07 0.88,1.95 1.95,1.95 1.08,0 1.96,-0.88 1.96,-1.95 0,-1.08 -0.88,-1.96 -1.96,-1.96 -1.07,0 -1.95,0.88 -1.95,1.96" /></g><g
       id="g252" /><g
       id="g254"><path
         id="path256"
         style="fill:none;stroke:#e7b800;stroke-width:1.07000005;stroke-linecap:butt;stroke-linejoin:round;stroke-miterlimit:10;stroke-dasharray:none;stroke-opacity:1"
         d="m 248.13,255.96 v 13.83" /><path
         id="path258"
         style="fill:#e7b800;fill-opacity:1;fill-rule:nonzero;stroke:#e7b800;stroke-width:1.41999996;stroke-linecap:round;stroke-linejoin:round;stroke-miterlimit:10;stroke-dasharray:none;stroke-opacity:1"
         d="m 245.29,262.88 c 0,1.56 1.28,2.84 2.84,2.84 1.57,0 2.84,-1.28 2.84,-2.84 0,-1.57 -1.27,-2.85 -2.84,-2.85 -1.56,0 -2.84,1.28 -2.84,2.85" /></g><g
       id="g260" /><g
       id="g262" /><g
       id="g264" /><g
       id="g266"><path
         id="path268"
         style="fill:#fc4e07;fill-opacity:1;fill-rule:nonzero;stroke:#fc4e07;stroke-width:0.70999998;stroke-linecap:round;stroke-linejoin:round;stroke-miterlimit:10;stroke-dasharray:none;stroke-opacity:1"
         d="m 285.38,262.88 c 0,1.07 0.88,1.95 1.95,1.95 1.08,0 1.96,-0.88 1.96,-1.95 0,-1.08 -0.88,-1.96 -1.96,-1.96 -1.07,0 -1.95,0.88 -1.95,1.96" /></g><g
       id="g270" /><g
       id="g272"><path
         id="path274"
         style="fill:none;stroke:#fc4e07;stroke-width:1.07000005;stroke-linecap:butt;stroke-linejoin:round;stroke-miterlimit:10;stroke-dasharray:none;stroke-opacity:1"
         d="m 287.33,255.96 v 13.83" /><path
         id="path276"
         style="fill:#fc4e07;fill-opacity:1;fill-rule:nonzero;stroke:#fc4e07;stroke-width:1.41999996;stroke-linecap:round;stroke-linejoin:round;stroke-miterlimit:10;stroke-dasharray:none;stroke-opacity:1"
         d="m 284.49,262.88 c 0,1.56 1.28,2.84 2.84,2.84 1.57,0 2.85,-1.28 2.85,-2.84 0,-1.57 -1.28,-2.85 -2.85,-2.85 -1.56,0 -2.84,1.28 -2.84,2.85" /></g><g
       id="g278" /><g
       id="g280"><text
         id="text284"
         style="font-variant:normal;font-weight:normal;font-size:10px;font-family:Helvetica;-inkscape-font-specification:Helvetica;writing-mode:lr-tb;fill:#000000;fill-opacity:1;fill-rule:nonzero;stroke:none"
         transform="matrix(1,0,0,-1,217.59,259.29)"><tspan
           id="tspan282"
           y="0"
           x="0 5.5599999 7.7800002 10 15.56">alluv</tspan></text>
</g><g
       id="g286" /><g
       id="g288"><text
         id="text292"
         style="font-variant:normal;font-weight:normal;font-size:10px;font-family:Helvetica;-inkscape-font-specification:Helvetica;writing-mode:lr-tb;fill:#000000;fill-opacity:1;fill-rule:nonzero;stroke:none"
         transform="matrix(1,0,0,-1,258.93,259.29)"><tspan
           id="tspan290"
           y="0"
           x="0 2.22 4.4400001 12.77">lime</tspan></text>
</g><g
       id="g294" /><g
       id="g296"><text
         id="text300"
         style="font-variant:normal;font-weight:normal;font-size:10px;font-family:Helvetica;-inkscape-font-specification:Helvetica;writing-mode:lr-tb;fill:#000000;fill-opacity:1;fill-rule:nonzero;stroke:none"
         transform="matrix(1,0,0,-1,298.13,259.29)"><tspan
           id="tspan298"
           y="0"
           x="0 4.75 10.31 12.53">volc</tspan></text>
</g><g
       id="g302" /><g
       id="g304" /><g
       id="g306" /><g
       id="g308" /><g
       id="g310" /><g
       id="g312" /></g></svg>