<?xml version="1.0" encoding="UTF-8" standalone="no"?>
<svg
   xmlns:dc="http://purl.org/dc/elements/1.1/"
   xmlns:cc="http://creativecommons.org/ns#"
   xmlns:rdf="http://www.w3.org/1999/02/22-rdf-syntax-ns#"
   xmlns:svg="http://www.w3.org/2000/svg"
   xmlns="http://www.w3.org/2000/svg"
   viewBox="0 0 597.33331 386.66666"
   height="386.66666"
   width="597.33331"
   xml:space="preserve"
   id="svg2"
   version="1.1"><metadata
     id="metadata8"><rdf:RDF><cc:Work
         rdf:about=""><dc:format>image/svg+xml</dc:format><dc:type
           rdf:resource="http://purl.org/dc/dcmitype/StillImage" /></cc:Work></rdf:RDF></metadata><defs
     id="defs6"><clipPath
       id="clipPath36"
       clipPathUnits="userSpaceOnUse"><path
         id="path34"
         d="M 0,0 H 448.5 V 290.25 H 0 Z" /></clipPath><clipPath
       id="clipPath52"
       clipPathUnits="userSpaceOnUse"><path
         id="path50"
         d="m 43.83,35.76 h 398.7 V 241.48 H 43.83 Z" /></clipPath></defs><g
     transform="matrix(1.3333333,0,0,-1.3333333,0,386.66667)"
     id="g10"><g
       id="g12" /><g
       id="g14" /><g
       id="g16" /><g
       id="g18" /><g
       id="g20" /><g
       id="g22" /><g
       id="g24" /><g
       id="g26" /><g
       id="g28" /><g
       id="g30"><g
         clip-path="url(#clipPath36)"
         id="g32"><path
           id="path38"
           style="fill:#ffffff;fill-opacity:1;fill-rule:nonzero;stroke:#ffffff;stroke-width:1.07000005;stroke-linecap:round;stroke-linejoin:round;stroke-miterlimit:10;stroke-dasharray:none;stroke-opacity:1"
           d="M 0,0 H 448.5 V 290.25 H 0 Z" /></g></g><g
       id="g40" /><g
       id="g42" /><g
       id="g44" /><g
       id="g46"><g
         clip-path="url(#clipPath52)"
         id="g48"><path
           id="path54"
           style="fill:#ffffff;fill-opacity:1;fill-rule:nonzero;stroke:none"
           d="m 43.83,35.76 h 398.7 V 241.48 H 43.83 Z" /><path
           id="path56"
           style="fill:#fc4e07;fill-opacity:1;fill-rule:nonzero;stroke:#fc4e07;stroke-width:0.70999998;stroke-linecap:round;stroke-linejoin:round;stroke-miterlimit:10;stroke-dasharray:none;stroke-opacity:1"
           d="m 361.58,48.97 c 0,1.08 0.88,1.96 1.95,1.96 1.08,0 1.96,-0.88 1.96,-1.96 0,-1.07 -0.88,-1.95 -1.96,-1.95 -1.07,0 -1.95,0.88 -1.95,1.95" /><path
           id="path58"
           style="fill:#fc4e07;fill-opacity:1;fill-rule:nonzero;stroke:#fc4e07;stroke-width:0.70999998;stroke-linecap:round;stroke-linejoin:round;stroke-miterlimit:10;stroke-dasharray:none;stroke-opacity:1"
           d="m 371.56,45.11 c 0,1.08 0.88,1.96 1.95,1.96 1.08,0 1.96,-0.88 1.96,-1.96 0,-1.07 -0.88,-1.95 -1.96,-1.95 -1.07,0 -1.95,0.88 -1.95,1.95" /><path
           id="path60"
           style="fill:#fc4e07;fill-opacity:1;fill-rule:nonzero;stroke:#fc4e07;stroke-width:0.70999998;stroke-linecap:round;stroke-linejoin:round;stroke-miterlimit:10;stroke-dasharray:none;stroke-opacity:1"
           d="m 364,68.6 c 0,1.07 0.88,1.95 1.95,1.95 1.08,0 1.96,-0.88 1.96,-1.95 0,-1.08 -0.88,-1.96 -1.96,-1.96 -1.07,0 -1.95,0.88 -1.95,1.96" /><path
           id="path62"
           style="fill:#fc4e07;fill-opacity:1;fill-rule:nonzero;stroke:#fc4e07;stroke-width:0.70999998;stroke-linecap:round;stroke-linejoin:round;stroke-miterlimit:10;stroke-dasharray:none;stroke-opacity:1"
           d="m 373.45,100.04 c 0,1.07 0.88,1.95 1.95,1.95 1.08,0 1.96,-0.88 1.96,-1.95 0,-1.08 -0.88,-1.96 -1.96,-1.96 -1.07,0 -1.95,0.88 -1.95,1.96" /><path
           id="path64"
           style="fill:#fc4e07;fill-opacity:1;fill-rule:nonzero;stroke:#fc4e07;stroke-width:0.70999998;stroke-linecap:round;stroke-linejoin:round;stroke-miterlimit:10;stroke-dasharray:none;stroke-opacity:1"
           d="m 374.59,93.4 c 0,1.08 0.88,1.96 1.96,1.96 1.07,0 1.95,-0.88 1.95,-1.96 0,-1.07 -0.88,-1.95 -1.95,-1.95 -1.08,0 -1.96,0.88 -1.96,1.95" /><path
           id="path66"
           style="fill:#fc4e07;fill-opacity:1;fill-rule:nonzero;stroke:#fc4e07;stroke-width:0.70999998;stroke-linecap:round;stroke-linejoin:round;stroke-miterlimit:10;stroke-dasharray:none;stroke-opacity:1"
           d="m 356.75,118.94 c 0,1.08 0.88,1.96 1.96,1.96 1.07,0 1.95,-0.88 1.95,-1.96 0,-1.07 -0.88,-1.95 -1.95,-1.95 -1.08,0 -1.96,0.88 -1.96,1.95" /><path
           id="path68"
           style="fill:#fc4e07;fill-opacity:1;fill-rule:nonzero;stroke:#fc4e07;stroke-width:0.70999998;stroke-linecap:round;stroke-linejoin:round;stroke-miterlimit:10;stroke-dasharray:none;stroke-opacity:1"
           d="m 366.37,115.72 c 0,1.07 0.88,1.95 1.96,1.95 1.07,0 1.95,-0.88 1.95,-1.95 0,-1.08 -0.88,-1.96 -1.95,-1.96 -1.08,0 -1.96,0.88 -1.96,1.96" /><path
           id="path70"
           style="fill:#fc4e07;fill-opacity:1;fill-rule:nonzero;stroke:#fc4e07;stroke-width:0.70999998;stroke-linecap:round;stroke-linejoin:round;stroke-miterlimit:10;stroke-dasharray:none;stroke-opacity:1"
           d="m 373.64,141.21 c 0,1.07 0.87,1.95 1.95,1.95 1.08,0 1.95,-0.88 1.95,-1.95 0,-1.08 -0.87,-1.96 -1.95,-1.96 -1.08,0 -1.95,0.88 -1.95,1.96" /><path
           id="path72"
           style="fill:#fc4e07;fill-opacity:1;fill-rule:nonzero;stroke:#fc4e07;stroke-width:0.70999998;stroke-linecap:round;stroke-linejoin:round;stroke-miterlimit:10;stroke-dasharray:none;stroke-opacity:1"
           d="m 366.84,135.23 c 0,1.07 0.88,1.95 1.95,1.95 1.08,0 1.96,-0.88 1.96,-1.95 0,-1.08 -0.88,-1.96 -1.96,-1.96 -1.07,0 -1.95,0.88 -1.95,1.96" /><path
           id="path74"
           style="fill:#fc4e07;fill-opacity:1;fill-rule:nonzero;stroke:#fc4e07;stroke-width:0.70999998;stroke-linecap:round;stroke-linejoin:round;stroke-miterlimit:10;stroke-dasharray:none;stroke-opacity:1"
           d="m 364.95,132.44 c 0,1.08 0.88,1.96 1.95,1.96 1.08,0 1.96,-0.88 1.96,-1.96 0,-1.07 -0.88,-1.95 -1.96,-1.95 -1.07,0 -1.95,0.88 -1.95,1.95" /><path
           id="path76"
           style="fill:#e7b800;fill-opacity:1;fill-rule:nonzero;stroke:#e7b800;stroke-width:0.70999998;stroke-linecap:round;stroke-linejoin:round;stroke-miterlimit:10;stroke-dasharray:none;stroke-opacity:1"
           d="m 250.33,99.43 c 0,1.07 0.88,1.95 1.95,1.95 1.08,0 1.96,-0.88 1.96,-1.95 0,-1.08 -0.88,-1.96 -1.96,-1.96 -1.07,0 -1.95,0.88 -1.95,1.96" /><path
           id="path78"
           style="fill:#e7b800;fill-opacity:1;fill-rule:nonzero;stroke:#e7b800;stroke-width:0.70999998;stroke-linecap:round;stroke-linejoin:round;stroke-miterlimit:10;stroke-dasharray:none;stroke-opacity:1"
           d="m 240.29,98.24 c 0,1.07 0.88,1.95 1.95,1.95 1.08,0 1.96,-0.88 1.96,-1.95 0,-1.08 -0.88,-1.96 -1.96,-1.96 -1.07,0 -1.95,0.88 -1.95,1.96" /><path
           id="path80"
           style="fill:#e7b800;fill-opacity:1;fill-rule:nonzero;stroke:#e7b800;stroke-width:0.70999998;stroke-linecap:round;stroke-linejoin:round;stroke-miterlimit:10;stroke-dasharray:none;stroke-opacity:1"
           d="m 244.76,118.59 c 0,1.08 0.88,1.96 1.95,1.96 1.08,0 1.96,-0.88 1.96,-1.96 0,-1.07 -0.88,-1.95 -1.96,-1.95 -1.07,0 -1.95,0.88 -1.95,1.95" /><path
           id="path82"
           style="fill:#e7b800;fill-opacity:1;fill-rule:nonzero;stroke:#e7b800;stroke-width:0.70999998;stroke-linecap:round;stroke-linejoin:round;stroke-miterlimit:10;stroke-dasharray:none;stroke-opacity:1"
           d="m 242.67,120.65 c 0,1.07 0.88,1.95 1.95,1.95 1.08,0 1.96,-0.88 1.96,-1.95 0,-1.08 -0.88,-1.96 -1.96,-1.96 -1.07,0 -1.95,0.88 -1.95,1.96" /><path
           id="path84"
           style="fill:#e7b800;fill-opacity:1;fill-rule:nonzero;stroke:#e7b800;stroke-width:0.70999998;stroke-linecap:round;stroke-linejoin:round;stroke-miterlimit:10;stroke-dasharray:none;stroke-opacity:1"
           d="m 233.3,105.53 c 0,1.08 0.88,1.96 1.96,1.96 1.07,0 1.95,-0.88 1.95,-1.96 0,-1.07 -0.88,-1.95 -1.95,-1.95 -1.08,0 -1.96,0.88 -1.96,1.95" /><path
           id="path86"
           style="fill:#00afbb;fill-opacity:1;fill-rule:nonzero;stroke:#00afbb;stroke-width:0.70999998;stroke-linecap:round;stroke-linejoin:round;stroke-miterlimit:10;stroke-dasharray:none;stroke-opacity:1"
           d="m 124.6,187.94 c 0,1.08 0.88,1.96 1.95,1.96 1.08,0 1.96,-0.88 1.96,-1.96 0,-1.07 -0.88,-1.95 -1.96,-1.95 -1.07,0 -1.95,0.88 -1.95,1.95" /><path
           id="path88"
           style="fill:#00afbb;fill-opacity:1;fill-rule:nonzero;stroke:#00afbb;stroke-width:0.70999998;stroke-linecap:round;stroke-linejoin:round;stroke-miterlimit:10;stroke-dasharray:none;stroke-opacity:1"
           d="m 111.57,193.44 c 0,1.08 0.88,1.96 1.95,1.96 1.08,0 1.96,-0.88 1.96,-1.96 0,-1.07 -0.88,-1.95 -1.96,-1.95 -1.07,0 -1.95,0.88 -1.95,1.95" /><path
           id="path90"
           style="fill:#00afbb;fill-opacity:1;fill-rule:nonzero;stroke:#00afbb;stroke-width:0.70999998;stroke-linecap:round;stroke-linejoin:round;stroke-miterlimit:10;stroke-dasharray:none;stroke-opacity:1"
           d="m 107.5,158.31 c 0,1.07 0.88,1.95 1.95,1.95 1.08,0 1.96,-0.88 1.96,-1.95 0,-1.08 -0.88,-1.96 -1.96,-1.96 -1.07,0 -1.95,0.88 -1.95,1.96" /><path
           id="path92"
           style="fill:#00afbb;fill-opacity:1;fill-rule:nonzero;stroke:#00afbb;stroke-width:0.70999998;stroke-linecap:round;stroke-linejoin:round;stroke-miterlimit:10;stroke-dasharray:none;stroke-opacity:1"
           d="m 113.2,209.32 c 0,1.07 0.88,1.95 1.95,1.95 1.08,0 1.96,-0.88 1.96,-1.95 0,-1.08 -0.88,-1.96 -1.96,-1.96 -1.07,0 -1.95,0.88 -1.95,1.96" /><path
           id="path94"
           style="fill:#00afbb;fill-opacity:1;fill-rule:nonzero;stroke:#00afbb;stroke-width:0.70999998;stroke-linecap:round;stroke-linejoin:round;stroke-miterlimit:10;stroke-dasharray:none;stroke-opacity:1"
           d="m 125.69,232.13 c 0,1.07 0.88,1.95 1.95,1.95 1.08,0 1.96,-0.88 1.96,-1.95 0,-1.08 -0.88,-1.96 -1.96,-1.96 -1.07,0 -1.95,0.88 -1.95,1.96" /><path
           id="path96"
           style="fill:none;stroke:#00afbb;stroke-width:1.07000005;stroke-linecap:butt;stroke-linejoin:round;stroke-miterlimit:10;stroke-dasharray:none;stroke-opacity:1"
           d="m 118.58,170.24 v 55.88" /><path
           id="path98"
           style="fill:none;stroke:#e7b800;stroke-width:1.07000005;stroke-linecap:butt;stroke-linejoin:round;stroke-miterlimit:10;stroke-dasharray:none;stroke-opacity:1"
           d="m 243.17,91.63 v 26.85" /><path
           id="path100"
           style="fill:none;stroke:#fc4e07;stroke-width:1.07000005;stroke-linecap:butt;stroke-linejoin:round;stroke-miterlimit:10;stroke-dasharray:none;stroke-opacity:1"
           d="m 367.77,59.3 v 76.8" /><path
           id="path102"
           style="fill:#00afbb;fill-opacity:1;fill-rule:nonzero;stroke:#00afbb;stroke-width:1.41999996;stroke-linecap:round;stroke-linejoin:round;stroke-miterlimit:10;stroke-dasharray:none;stroke-opacity:1"
           d="m 115.74,198.18 c 0,1.56 1.28,2.84 2.84,2.84 1.57,0 2.84,-1.28 2.84,-2.84 0,-1.56 -1.27,-2.84 -2.84,-2.84 -1.56,0 -2.84,1.28 -2.84,2.84" /><path
           id="path104"
           style="fill:#e7b800;fill-opacity:1;fill-rule:nonzero;stroke:#e7b800;stroke-width:1.41999996;stroke-linecap:round;stroke-linejoin:round;stroke-miterlimit:10;stroke-dasharray:none;stroke-opacity:1"
           d="m 240.33,105.05 c 0,1.57 1.28,2.84 2.84,2.84 1.57,0 2.85,-1.27 2.85,-2.84 0,-1.56 -1.28,-2.84 -2.85,-2.84 -1.56,0 -2.84,1.28 -2.84,2.84" /><path
           id="path106"
           style="fill:#fc4e07;fill-opacity:1;fill-rule:nonzero;stroke:#fc4e07;stroke-width:1.41999996;stroke-linecap:round;stroke-linejoin:round;stroke-miterlimit:10;stroke-dasharray:none;stroke-opacity:1"
           d="m 364.92,97.7 c 0,1.56 1.28,2.84 2.85,2.84 1.56,0 2.84,-1.28 2.84,-2.84 0,-1.56 -1.28,-2.84 -2.84,-2.84 -1.57,0 -2.85,1.28 -2.85,2.84" /></g></g><g
       id="g108" /><g
       id="g110" /><g
       id="g112" /><g
       id="g114" /><g
       id="g116" /><g
       id="g118"><text
         id="text122"
         style="font-variant:normal;font-weight:normal;font-size:12px;font-family:Helvetica;-inkscape-font-specification:Helvetica;writing-mode:lr-tb;fill:#000000;fill-opacity:1;fill-rule:nonzero;stroke:none"
         transform="matrix(1,0,0,-1,21.77,37.03)"><tspan
           id="tspan120"
           y="0"
           x="0 6.6719999 10.008">0.0</tspan></text>
<text
         id="text126"
         style="font-variant:normal;font-weight:normal;font-size:12px;font-family:Helvetica;-inkscape-font-specification:Helvetica;writing-mode:lr-tb;fill:#000000;fill-opacity:1;fill-rule:nonzero;stroke:none"
         transform="matrix(1,0,0,-1,21.77,86.04)"><tspan
           id="tspan124"
           y="0"
           x="0 6.6719999 10.008">0.2</tspan></text>
<text
         id="text130"
         style="font-variant:normal;font-weight:normal;font-size:12px;font-family:Helvetica;-inkscape-font-specification:Helvetica;writing-mode:lr-tb;fill:#000000;fill-opacity:1;fill-rule:nonzero;stroke:none"
         transform="matrix(1,0,0,-1,21.77,135.05)"><tspan
           id="tspan128"
           y="0"
           x="0 6.6719999 10.008">0.4</tspan></text>
<text
         id="text134"
         style="font-variant:normal;font-weight:normal;font-size:12px;font-family:Helvetica;-inkscape-font-specification:Helvetica;writing-mode:lr-tb;fill:#000000;fill-opacity:1;fill-rule:nonzero;stroke:none"
         transform="matrix(1,0,0,-1,21.77,184.07)"><tspan
           id="tspan132"
           y="0"
           x="0 6.6719999 10.008">0.6</tspan></text>
<text
         id="text138"
         style="font-variant:normal;font-weight:normal;font-size:12px;font-family:Helvetica;-inkscape-font-specification:Helvetica;writing-mode:lr-tb;fill:#000000;fill-opacity:1;fill-rule:nonzero;stroke:none"
         transform="matrix(1,0,0,-1,21.77,233.08)"><tspan
           id="tspan136"
           y="0"
           x="0 6.6719999 10.008">0.8</tspan></text>
</g><g
       id="g140" /><g
       id="g142"><path
         id="path144"
         style="fill:none;stroke:#000000;stroke-width:1.07000005;stroke-linecap:butt;stroke-linejoin:round;stroke-miterlimit:10;stroke-dasharray:none;stroke-opacity:1"
         d="m 40.84,41.33 h 2.99" /><path
         id="path146"
         style="fill:none;stroke:#000000;stroke-width:1.07000005;stroke-linecap:butt;stroke-linejoin:round;stroke-miterlimit:10;stroke-dasharray:none;stroke-opacity:1"
         d="m 40.84,90.35 h 2.99" /><path
         id="path148"
         style="fill:none;stroke:#000000;stroke-width:1.07000005;stroke-linecap:butt;stroke-linejoin:round;stroke-miterlimit:10;stroke-dasharray:none;stroke-opacity:1"
         d="m 40.84,139.36 h 2.99" /><path
         id="path150"
         style="fill:none;stroke:#000000;stroke-width:1.07000005;stroke-linecap:butt;stroke-linejoin:round;stroke-miterlimit:10;stroke-dasharray:none;stroke-opacity:1"
         d="m 40.84,188.38 h 2.99" /><path
         id="path152"
         style="fill:none;stroke:#000000;stroke-width:1.07000005;stroke-linecap:butt;stroke-linejoin:round;stroke-miterlimit:10;stroke-dasharray:none;stroke-opacity:1"
         d="m 40.84,237.39 h 2.99" /></g><g
       id="g154" /><g
       id="g156" /><g
       id="g158" /><g
       id="g160" /><g
       id="g162" /><g
       id="g164" /><g
       id="g166" /><g
       id="g168"><path
         id="path170"
         style="fill:none;stroke:#000000;stroke-width:1.07000005;stroke-linecap:butt;stroke-linejoin:round;stroke-miterlimit:10;stroke-dasharray:none;stroke-opacity:1"
         d="m 118.58,32.77 v 2.99" /><path
         id="path172"
         style="fill:none;stroke:#000000;stroke-width:1.07000005;stroke-linecap:butt;stroke-linejoin:round;stroke-miterlimit:10;stroke-dasharray:none;stroke-opacity:1"
         d="m 243.17,32.77 v 2.99" /><path
         id="path174"
         style="fill:none;stroke:#000000;stroke-width:1.07000005;stroke-linecap:butt;stroke-linejoin:round;stroke-miterlimit:10;stroke-dasharray:none;stroke-opacity:1"
         d="m 367.77,32.77 v 2.99" /></g><g
       id="g176" /><g
       id="g178"><text
         id="text182"
         style="font-variant:normal;font-weight:normal;font-size:12px;font-family:Helvetica;-inkscape-font-specification:Helvetica;writing-mode:lr-tb;fill:#000000;fill-opacity:1;fill-rule:nonzero;stroke:none"
         transform="matrix(1,0,0,-1,106.25,21.77)"><tspan
           id="tspan180"
           y="0"
           x="0 6.6719999 9.3360004 12 18.672001">alluv</tspan></text>
<text
         id="text186"
         style="font-variant:normal;font-weight:normal;font-size:12px;font-family:Helvetica;-inkscape-font-specification:Helvetica;writing-mode:lr-tb;fill:#000000;fill-opacity:1;fill-rule:nonzero;stroke:none"
         transform="matrix(1,0,0,-1,232.18,21.77)"><tspan
           id="tspan184"
           y="0"
           x="0 2.664 5.3280001 15.324">lime</tspan></text>
<text
         id="text190"
         style="font-variant:normal;font-weight:normal;font-size:12px;font-family:Helvetica;-inkscape-font-specification:Helvetica;writing-mode:lr-tb;fill:#000000;fill-opacity:1;fill-rule:nonzero;stroke:none"
         transform="matrix(1,0,0,-1,357.25,21.77)"><tspan
           id="tspan188"
           y="0"
           x="0 5.6999998 12.372 15.036">volc</tspan></text>
</g><g
       id="g192" /><g
       id="g194" /><g
       id="g196" /><g
       id="g198"><text
         id="text202"
         style="font-variant:normal;font-weight:normal;font-size:12px;font-family:Helvetica;-inkscape-font-specification:Helvetica;writing-mode:lr-tb;fill:#000000;fill-opacity:1;fill-rule:nonzero;stroke:none"
         transform="matrix(1,0,0,-1,233.5,8.37)"><tspan
           id="tspan200"
           y="0"
           x="0 6.6719999 9.3360004 12.672">Lith</tspan></text>
</g><g
       id="g204" /><g
       id="g206"><text
         id="text210"
         style="font-variant:normal;font-weight:normal;font-size:12px;font-family:Helvetica;-inkscape-font-specification:Helvetica;writing-mode:lr-tb;fill:#000000;fill-opacity:1;fill-rule:nonzero;stroke:none"
         transform="matrix(0,1,1,0,16.98,111.28)"><tspan
           id="tspan208"
           y="0"
           x="0 8.6639996 18 24.672001 31.344 38.015999 44.688">NO2_ppm</tspan></text>
</g><g
       id="g212" /><g
       id="g214" /><g
       id="g216" /><g
       id="g218"><path
         id="path220"
         style="fill:#ffffff;fill-opacity:1;fill-rule:nonzero;stroke:none"
         d="m 168.56,249.98 h 149.23 v 25.78 H 168.56 Z" /></g><g
       id="g222" /><g
       id="g224"><text
         id="text228"
         style="font-variant:normal;font-weight:normal;font-size:12px;font-family:Helvetica;-inkscape-font-specification:Helvetica;writing-mode:lr-tb;fill:#000000;fill-opacity:1;fill-rule:nonzero;stroke:none"
         transform="matrix(1,0,0,-1,172.81,258.57)"><tspan
           id="tspan226"
           y="0"
           x="0 6.6719999 9.3360004 12.672">Lith</tspan></text>
</g><g
       id="g230" /><g
       id="g232" /><g
       id="g234" /><g
       id="g236"><path
         id="path238"
         style="fill:#00afbb;fill-opacity:1;fill-rule:nonzero;stroke:#00afbb;stroke-width:0.70999998;stroke-linecap:round;stroke-linejoin:round;stroke-miterlimit:10;stroke-dasharray:none;stroke-opacity:1"
         d="m 203.17,262.88 c 0,1.07 0.87,1.95 1.95,1.95 1.07,0 1.95,-0.88 1.95,-1.95 0,-1.08 -0.88,-1.96 -1.95,-1.96 -1.08,0 -1.95,0.88 -1.95,1.96" /></g><g
       id="g240" /><g
       id="g242"><path
         id="path244"
         style="fill:none;stroke:#00afbb;stroke-width:1.07000005;stroke-linecap:butt;stroke-linejoin:round;stroke-miterlimit:10;stroke-dasharray:none;stroke-opacity:1"
         d="m 205.12,255.96 v 13.83" /><path
         id="path246"
         style="fill:#00afbb;fill-opacity:1;fill-rule:nonzero;stroke:#00afbb;stroke-width:1.41999996;stroke-linecap:round;stroke-linejoin:round;stroke-miterlimit:10;stroke-dasharray:none;stroke-opacity:1"
         d="m 202.28,262.88 c 0,1.56 1.28,2.84 2.84,2.84 1.56,0 2.84,-1.28 2.84,-2.84 0,-1.57 -1.28,-2.85 -2.84,-2.85 -1.56,0 -2.84,1.28 -2.84,2.85" /></g><g
       id="g248" /><g
       id="g250" /><g
       id="g252" /><g
       id="g254"><path
         id="path256"
         style="fill:#e7b800;fill-opacity:1;fill-rule:nonzero;stroke:#e7b800;stroke-width:0.70999998;stroke-linecap:round;stroke-linejoin:round;stroke-miterlimit:10;stroke-dasharray:none;stroke-opacity:1"
         d="m 244.51,262.88 c 0,1.07 0.88,1.95 1.95,1.95 1.08,0 1.96,-0.88 1.96,-1.95 0,-1.08 -0.88,-1.96 -1.96,-1.96 -1.07,0 -1.95,0.88 -1.95,1.96" /></g><g
       id="g258" /><g
       id="g260"><path
         id="path262"
         style="fill:none;stroke:#e7b800;stroke-width:1.07000005;stroke-linecap:butt;stroke-linejoin:round;stroke-miterlimit:10;stroke-dasharray:none;stroke-opacity:1"
         d="m 246.46,255.96 v 13.83" /><path
         id="path264"
         style="fill:#e7b800;fill-opacity:1;fill-rule:nonzero;stroke:#e7b800;stroke-width:1.41999996;stroke-linecap:round;stroke-linejoin:round;stroke-miterlimit:10;stroke-dasharray:none;stroke-opacity:1"
         d="m 243.62,262.88 c 0,1.56 1.28,2.84 2.84,2.84 1.57,0 2.85,-1.28 2.85,-2.84 0,-1.57 -1.28,-2.85 -2.85,-2.85 -1.56,0 -2.84,1.28 -2.84,2.85" /></g><g
       id="g266" /><g
       id="g268" /><g
       id="g270" /><g
       id="g272"><path
         id="path274"
         style="fill:#fc4e07;fill-opacity:1;fill-rule:nonzero;stroke:#fc4e07;stroke-width:0.70999998;stroke-linecap:round;stroke-linejoin:round;stroke-miterlimit:10;stroke-dasharray:none;stroke-opacity:1"
         d="m 283.71,262.88 c 0,1.07 0.88,1.95 1.96,1.95 1.07,0 1.95,-0.88 1.95,-1.95 0,-1.08 -0.88,-1.96 -1.95,-1.96 -1.08,0 -1.96,0.88 -1.96,1.96" /></g><g
       id="g276" /><g
       id="g278"><path
         id="path280"
         style="fill:none;stroke:#fc4e07;stroke-width:1.07000005;stroke-linecap:butt;stroke-linejoin:round;stroke-miterlimit:10;stroke-dasharray:none;stroke-opacity:1"
         d="m 285.67,255.96 v 13.83" /><path
         id="path282"
         style="fill:#fc4e07;fill-opacity:1;fill-rule:nonzero;stroke:#fc4e07;stroke-width:1.41999996;stroke-linecap:round;stroke-linejoin:round;stroke-miterlimit:10;stroke-dasharray:none;stroke-opacity:1"
         d="m 282.82,262.88 c 0,1.56 1.28,2.84 2.85,2.84 1.56,0 2.84,-1.28 2.84,-2.84 0,-1.57 -1.28,-2.85 -2.84,-2.85 -1.57,0 -2.85,1.28 -2.85,2.85" /></g><g
       id="g284" /><g
       id="g286"><text
         id="text290"
         style="font-variant:normal;font-weight:normal;font-size:10px;font-family:Helvetica;-inkscape-font-specification:Helvetica;writing-mode:lr-tb;fill:#000000;fill-opacity:1;fill-rule:nonzero;stroke:none"
         transform="matrix(1,0,0,-1,215.92,259.29)"><tspan
           id="tspan288"
           y="0"
           x="0 5.5599999 7.7800002 10 15.56">alluv</tspan></text>
</g><g
       id="g292" /><g
       id="g294"><text
         id="text298"
         style="font-variant:normal;font-weight:normal;font-size:10px;font-family:Helvetica;-inkscape-font-specification:Helvetica;writing-mode:lr-tb;fill:#000000;fill-opacity:1;fill-rule:nonzero;stroke:none"
         transform="matrix(1,0,0,-1,257.26,259.29)"><tspan
           id="tspan296"
           y="0"
           x="0 2.22 4.4400001 12.77">lime</tspan></text>
</g><g
       id="g300" /><g
       id="g302"><text
         id="text306"
         style="font-variant:normal;font-weight:normal;font-size:10px;font-family:Helvetica;-inkscape-font-specification:Helvetica;writing-mode:lr-tb;fill:#000000;fill-opacity:1;fill-rule:nonzero;stroke:none"
         transform="matrix(1,0,0,-1,296.47,259.29)"><tspan
           id="tspan304"
           y="0"
           x="0 4.75 10.31 12.53">volc</tspan></text>
</g><g
       id="g308" /><g
       id="g310" /><g
       id="g312" /><g
       id="g314" /><g
       id="g316" /><g
       id="g318" /></g></svg>